<svg width="258" height="177" viewBox="0 0 258 177" fill="none" xmlns="http://www.w3.org/2000/svg">
<path d="M233.219 66.3383C233.39 66.3865 233.503 66.5575 233.647 66.459L233.219 66.3383Z" fill="#FFC700"/>
<path d="M234.655 99.7448C234.335 96.7829 235.001 97.9434 235.346 97.7859C235.273 98.4841 235.036 99.1553 234.655 99.7448ZM241.456 72.5987C241.672 74.3732 241.718 75.521 241.439 75.2803C241.264 74.379 241.135 73.4691 241.053 72.5544L241.438 72.663L241.456 72.5987ZM217.866 153.208C217.299 155.216 215.96 156.918 214.143 157.939C212.326 158.959 210.179 159.215 208.176 158.65L24.136 106.741C22.1305 106.176 20.4317 104.836 19.412 103.016C18.3923 101.196 18.1349 99.0439 18.6963 97.0319L28.0567 63.845C29.3045 57.9681 30.8651 52.1618 32.7316 46.4511C32.1826 46.7595 32.7844 44.5438 31.731 45.8215C33.0423 43.8755 33.0477 44.7571 33.0407 45.5193C33.2101 44.9186 33.3855 44.2965 33.6559 43.7475L35.6526 36.6682C34.748 38.7289 34.3061 38.0022 33.9185 38.1476C34.825 36.7358 35.025 37.2554 35.7434 36.3464L39.2225 24.0113C39.8049 22.0111 41.1506 20.3208 42.9676 19.3071C44.7846 18.2935 46.9263 18.0382 48.928 18.5967L71.6547 25.0069C83.849 28.2147 96.6248 31.8181 108.035 35.2679L152.482 47.8044C166.881 51.634 181.476 55.7504 195.582 59.9607L200.611 61.3792C203.884 62.0738 207.108 62.9832 210.262 64.1013L233.032 70.5235C235.036 71.0949 236.731 72.4394 237.745 74.2624C238.76 76.0853 239.011 78.238 238.444 80.2484L217.872 153.187L217.866 153.208ZM29.9164 46.9309C31.0081 45.1081 31.108 45.9006 31.6054 45.6935C30.6775 47.0992 30.5139 46.4509 29.9164 46.9309ZM45.638 17.4835C45.8967 17.1396 46.4132 16.1274 46.4262 16.4089C46.8901 16.2387 47.0285 17.7136 46.4163 17.263C44.612 18.7458 44.9235 16.4946 43.3556 17.3029C45.1601 14.7549 46.2943 15.0748 45.6166 17.4775L45.638 17.4835ZM48.3044 16.2207C47.0135 18.9136 47.2086 17.6486 46.9062 17.6559C47.2483 17.096 47.6853 16.6001 48.1974 16.1906L48.3044 16.2207ZM236.207 97.8436C236.782 96.7087 237.386 96.694 238.001 96.7283L241.074 85.8304C241.159 85.5301 241.232 85.2727 241.31 84.9938C242.306 80.643 244.485 76.4404 241.278 72.2473L240.738 71.3771C239.171 69.0533 236.833 67.3605 234.139 66.5977L233.797 66.5012C233.491 68.7309 232.649 66.6405 232.235 66.385C232.254 66.2824 232.282 66.1818 232.32 66.0847L211.091 60.0971C210.732 59.994 210.364 59.9288 209.991 59.9026C206.315 61.7143 204.735 60.2727 202.501 57.79C202.217 57.6808 201.923 57.5979 201.624 57.5425L106.266 30.6466C102.432 28.5927 100.359 28.9807 96.925 30.9996C96.265 29.8176 96.7793 27.9941 94.6393 27.3905L49.9989 14.7997C47.5747 14.0904 44.9873 14.1716 42.6101 15.0315C42.7218 15.6256 42.745 16.2331 42.6792 16.8342C42.245 16.9713 41.7844 17.0021 41.3361 16.924C40.8878 16.8459 40.4649 16.6613 40.1028 16.3855C37.807 17.942 36.1255 20.253 35.3492 22.9188L30.551 39.9305C30.1115 42.3078 29.5622 44.7466 28.958 47.2164C29.1227 47.1239 29.2358 47.1326 29.279 47.3069C29.117 47.6154 28.9331 47.9118 28.7285 48.1938C27.2408 54.1397 25.419 59.997 23.272 65.7378L15.8054 92.2101C15.7268 92.4889 15.6542 92.7464 15.5816 93.0038C14.9719 94.5919 13.3014 96.9925 14.3489 99.0943C14.2581 99.4161 14.3599 99.7922 14.4036 100.129C14.5915 102.549 15.5164 104.852 17.0535 106.727C18.5905 108.602 20.6655 109.958 22.998 110.612L47.5223 117.529C48.5709 117.825 49.3413 118.042 50.0261 118.235L50.7323 118.435C53.9389 120.335 56.3966 122.024 60.9401 121.314C61.1342 121.388 61.3348 121.445 61.5393 121.483L62.4595 121.742L85.5929 128.267C87.9255 128.925 90.6647 129.698 93.3397 130.452L96.571 131.364C97.1003 131.582 97.6533 131.738 98.2188 131.828L101.557 132.77C102.651 133.148 103.766 133.463 104.896 133.712L112.407 135.83C117.051 137.14 120.689 138.166 124.84 139.337L126.531 139.814C127.024 140.023 127.542 140.169 128.072 140.248L129.613 140.683C130.106 140.892 130.624 141.038 131.153 141.118L133.379 141.745C133.863 141.957 134.375 142.102 134.898 142.174L138.686 143.242C139.172 143.449 139.683 143.593 140.206 143.671L143.951 144.727C144.421 144.933 144.918 145.073 145.427 145.143L151.997 146.997C152.455 147.195 152.937 147.331 153.431 147.401L155.571 148.005C156.263 148.276 156.979 148.478 157.711 148.608L159.102 149C160.914 149.511 162.733 150.025 164.559 150.54L165.458 150.793L165.928 150.926L166.228 151.01L203.293 161.465C208.3 162.877 213.491 165.36 216.967 160.898C217.253 160.715 217.526 160.514 217.784 160.295C219.713 158.762 221.113 156.662 221.788 154.291L237.598 98.236C237.366 97.9297 237.173 97.5952 237.024 97.2404C236.903 97.6694 237.041 98.8198 236.833 98.5758C236.366 99.0001 235.172 97.8295 236.229 97.8497L236.207 97.8436Z" fill="#FFC700"/>
<path d="M52.1283 10.4442L76.3102 17.2648C77.3552 17.4557 78.3797 17.7447 79.3704 18.1279L99.2082 23.7232C102.482 24.6467 105.222 25.4193 108.603 26.3729L159.898 40.841C161.61 41.3239 163.28 41.7947 164.906 42.2534L165.762 42.4948C166.404 42.7924 167.065 43.0485 167.741 43.2613L168.768 43.551C172.527 45.3756 177.642 44.8499 180.921 46.1682L181.584 46.3553C182.641 46.746 183.653 47.2489 184.603 47.8554L193.356 50.324C194.033 50.39 194.692 50.576 195.303 50.8733L201.916 52.7384L203.243 53.1126L205.896 53.8611C206.196 53.9456 206.517 54.0361 206.774 54.1085C209.149 54.7785 212.808 55.8107 215.976 56.704L218.116 57.3076C221.112 58.1526 224.771 59.1847 227.574 59.9754L234.529 61.9371L235.578 62.2329C235.754 61.6107 235.976 61.5578 236.112 62.0593L236.015 62.4025L236.465 62.5293C236.749 61.1694 237.346 59.8944 238.208 58.806C237.368 58.4663 236.508 58.1774 235.633 57.9409L231.353 56.7337C225.885 55.3997 221.327 54.1141 215.967 52.3939L214.769 52.0559C213.368 51.7882 211.994 51.4005 210.66 50.897L209.697 50.6254C207.557 50.0218 205.16 49.3458 203.527 48.7463L193.469 45.9094C189.467 44.7807 185.665 43.8471 181.956 42.8243L180.929 42.5346C177.318 42.5584 175.245 42.9463 171.877 39.9814L170.85 39.6917L166.655 38.5087L108.212 22.0246L106.723 21.6511C105.685 21.4974 104.671 21.2114 103.706 20.8L102.144 20.3594L97.8638 19.1522C96.2026 18.8937 94.5788 18.4357 93.0274 17.7881L86.8214 16.0377C80.5576 15.4752 74.9335 10.9246 68.4602 10.8589L53.2234 6.56134C47.8612 5.04248 42.1226 5.59769 37.1443 8.11702C36.4858 9.71453 35.8548 11.2966 35.2298 12.8573C35.8616 12.6649 36.3635 13.0149 37.1726 12.8494C39.3457 11.3904 41.8077 10.4199 44.3895 10.0047C46.9712 9.58946 49.6113 9.73942 52.1283 10.4442Z" fill="#FFC700"/>
<path d="M241.342 65.5493C241.627 65.7686 241.9 66.0308 242.157 66.2654C243.547 67.5646 244.677 69.1173 245.487 70.8406C246.233 69.9162 246.935 68.6553 247.619 67.6209C246.897 66.2433 246.093 64.9105 245.21 63.6297C244.739 64.0834 244.169 64.4219 243.545 64.6191C243.294 63.1354 243.069 62.5394 242.883 61.5606C242.105 60.9628 241.285 60.4219 240.429 59.942C239.267 61.9303 237.711 59.1754 236.495 62.5843C238.232 63.313 239.846 64.3071 241.278 65.5312L241.342 65.5493Z" fill="#FFC700"/>
<path d="M234.186 134.907C234.526 132.062 235.824 136.226 234.186 134.907V134.907ZM179.476 160.884C178.47 160.601 178.191 160.36 178.347 160.218C179.952 160.671 180.206 160.998 179.476 160.884ZM176.229 158.718C177.834 159.17 177.233 159.418 177.842 159.798C175.83 159.231 176.554 159.041 176.229 158.718ZM166.106 156.604C168.762 157.098 168.161 157.508 168.427 157.791C166.758 157.32 167.311 157.082 166.106 156.604ZM167.161 156.137C169.002 156.656 167.769 157.096 167.673 156.536C167.467 156.429 167.241 156.365 167.009 156.349C165.49 155.92 166.776 156.028 167.088 156.07L167.161 156.137ZM145.683 151.445C145.255 151.325 144.185 151.023 144.45 150.982C144.147 150.665 145.487 150.418 145.256 150.908C147.239 152.07 144.936 152.045 146.161 153.109C143.247 152.055 143.232 151.287 145.683 151.445ZM145.478 150.531C144.859 150.328 144.272 150.037 143.735 149.669C146.645 150.327 145.377 150.317 145.478 150.531ZM111.476 144.044C108.887 143.314 111.395 143.512 108.488 142.761C107.328 142.611 106.177 142.402 105.038 142.135C104.824 142.075 106.321 142.335 105.865 142.068C106.935 142.369 106.978 142.381 107.813 142.617C108.399 142.504 107.423 142.113 107.505 141.905C108.04 142.056 108.554 142.201 109.453 142.454C105.958 141.329 111.786 142.371 110.177 141.361C113.828 142.831 110.708 143.41 111.476 144.044ZM110.268 140.137C108.693 140.48 112.928 141.026 110.268 140.137V140.137ZM93.3933 138.944C91.5529 138.424 92.2481 137.926 92.6477 137.737C94.1099 138.451 93.9088 138.672 93.3933 138.944ZM82.1257 132.778C79.9433 132.325 80.2662 131.999 82.1922 132.542L82.1257 132.778ZM76.8678 131.434C75.6908 131.102 75.455 130.873 74.3971 130.529C74.5255 130.565 78.6771 131.736 76.8678 131.434ZM47.198 124.085C45.8498 123.704 45.5651 123.485 46.0508 123.483C47.6558 123.936 47.9284 124.198 47.198 124.085ZM243.212 97.9899L239.182 112.277C237.077 119.743 235.014 127.058 232.853 134.716L227.372 154.152C226.724 156.457 225.628 158.611 224.146 160.491C222.664 162.37 220.826 163.938 218.738 165.103L217.704 165.576C209.564 167.855 200.881 167.124 193.242 163.516L166.642 156.014C147.697 150.856 129.464 145.713 110.189 140.091L107.021 139.198L93.7106 135.443L92.5978 135.13L86.0708 133.289C86.4136 133.547 86.3257 133.777 85.9377 133.761C84.8249 133.447 84.9678 133.186 85.386 133.095C76.6548 130.633 67.624 128.086 58.6146 125.545L57.994 125.369C54.6174 121.615 48.5102 125.821 46.0743 122.007L44.9187 121.682L22.5343 115.368C19.3641 114.462 16.5007 112.709 14.2511 110.296C12.0015 107.882 10.4505 104.9 9.76444 101.669L9.58127 100.598C9.53737 97.228 9.9192 93.8651 10.7177 90.5898C10.7842 90.3539 10.8568 90.0964 10.9234 89.8605L21.6271 51.9111C21.5209 52.1568 21.3715 52.3814 21.1859 52.5741C20.7277 52.5607 21.5705 50.2277 21.2584 50.0239C20.9462 49.8201 19.5833 51.8674 18.8454 52.354C18.1075 52.8406 18.001 51.9074 17.2143 52.4034L6.11731 91.7472C5.70012 94.6772 5.47658 97.6314 5.44814 100.59C5.48578 100.948 5.55087 101.291 5.60991 101.655C6.32305 105.789 8.18641 109.635 10.9856 112.751C13.7848 115.868 17.4062 118.128 21.4331 119.272L44.1812 125.688C47.6808 125.564 51.1363 126.49 54.1043 128.348L55.0673 128.62L61.4873 130.431L63.6273 131.034C67.9073 132.242 72.5725 133.557 77.0665 134.825L78.0937 135.115C80.5528 136.062 83.0581 136.884 85.5999 137.579C86.089 136.582 84.1631 134.974 85.5873 134.102C86.4781 135.126 87.0608 136.382 87.2682 137.725L92.1902 139.114C92.2972 139.144 92.5382 139.027 92.3791 138.935C92.7873 139.039 93.1668 139.233 93.4896 139.503C97.2774 140.572 101.065 141.64 104.789 142.69L115.489 145.708C123.898 147.918 131.196 149.976 139.029 152.348L140.462 152.752C141.748 152.988 143.009 153.343 144.229 153.814C144.742 153.684 145.267 153.607 145.795 153.585C146.028 153.814 146.187 154.109 146.25 154.431L148.197 154.98C153.953 156.441 158.511 157.727 164.119 159.471L166.259 160.074C165.745 159.929 165.467 159.851 165.632 159.759C166.231 159.928 167.13 160.181 168.3 160.372L168.24 160.587L166.656 160.14L172.113 161.679C175.091 162.751 178.066 163.59 181.016 164.352L181.743 164.558C177.302 162.448 183.022 162.973 178.226 160.647C182.199 162.37 182.746 163.543 183.293 164.717C183.382 164.973 185.433 165.32 185.882 165.447C185.882 165.447 185.882 165.447 185.684 165.576C191.856 166.843 197.928 168.555 203.852 170.701C209.528 172.302 215.609 171.577 220.757 168.686C225.905 165.794 229.698 160.974 231.303 155.284L236.749 135.977C236.936 135.312 237.118 134.669 237.305 134.004C237.204 134.029 237.109 134.075 237.027 134.14C236.945 134.205 236.878 134.286 236.83 134.379C236.949 133.737 237.237 133.139 237.665 132.646C239.541 125.996 241.356 119.56 243.438 112.18L248.024 95.9195C246.408 97.2239 244.848 98.4975 243.191 97.9838L243.212 97.9899Z" fill="#FFC700"/>
<path d="M244.483 93.4849L244.035 95.0724C245.209 95.1118 246.351 94.6846 247.212 93.8841C247.404 92.5428 247.462 91.1859 247.384 89.8335C247.665 90.1012 248.006 90.2961 248.379 90.4013C248.752 90.5065 249.145 90.5188 249.524 90.4371C250.069 88.5064 250.607 86.5971 251.237 84.3661C251.339 84.0014 251.442 83.6367 251.545 83.272C251.57 83.2177 251.587 83.1598 251.594 83.1004C250.893 83.7828 249.641 81.8318 249.06 83.8912C248.514 80.5874 250.455 83.2886 250.423 80.6164C250.762 81.0284 251.029 81.4952 251.212 81.9968C251.419 81.7542 251.442 80.1164 251.755 80.8069C251.903 78.5113 251.688 76.2072 251.116 73.9801C251.085 74.4219 250.964 74.8528 250.759 75.2458C250.549 75.4181 250.356 73.974 250.09 73.8526C249.824 73.7312 249.722 75.8102 249.527 75.8477C249.332 75.8852 248.98 74.6744 248.652 74.4431C248.325 74.2118 247.606 74.9585 247.157 75.8971C247.835 81.899 246.918 87.976 244.498 93.5124L244.483 93.4849Z" fill="#FFC700"/>
<path d="M206.694 148.505C208.749 147.279 206.93 146.766 206.11 145.168L205.558 144.178L201.797 146.29L203.9 150.056L205.788 149.014C206.089 148.821 206.391 148.651 206.694 148.505Z" fill="#FFC700"/>
<path d="M211.219 142.046C209.654 140.632 209.14 142.456 207.721 142.982L206.739 143.515C206.739 143.515 206.984 143.955 207.356 144.523C208.365 145.202 209.264 145.455 208.762 147.236C212.016 146.185 213.45 144.621 211.231 142.003L211.219 142.046Z" fill="#FFC700"/>
<path d="M204.56 151.238L206.663 155.004L210.423 152.892L208.32 149.126L204.56 151.238Z" fill="#FFC700"/>
<path d="M214.714 148.984C213.822 146.741 212.264 145.305 210.019 147.938L209.632 148.246C209.772 148.997 210.087 149.705 210.551 150.311C210.729 150.662 210.892 150.986 211.067 151.267L211.604 152.229L215.365 150.117L215.212 149.842L214.714 148.984Z" fill="#FFC700"/>
<path d="M222.712 80.4894C223.915 82.2876 224.643 80.3622 226.032 80.1056C225.682 79.6469 225.445 79.112 225.34 78.5441C225.486 78.0293 225.757 77.967 226.051 78.0729C225.883 77.5587 225.686 77.0546 225.46 76.5631L224.902 75.595L221.147 77.6856L222.206 79.5823L222.712 80.4894Z" fill="#FFC700"/>
<path d="M226.681 76.0042C227.178 77.0246 227.757 77.512 227.924 78.2307C228.064 77.7698 228.137 77.2911 228.14 76.8095C228.335 77.5128 228.567 77.5088 228.761 78.2121C229.487 75.6378 230.689 76.0462 231.792 76.3111L231.393 75.5964L230.402 73.7882L229.843 72.8201L226.082 74.9321L226.236 75.207C226.38 75.433 226.527 75.7293 226.681 76.0042Z" fill="#FFC700"/>
<path d="M227.732 82.9243C227.697 82.15 227.639 81.3696 227.588 80.5678C225.409 81.0878 224.078 82.6115 224.987 84.4659L225.494 85.373L226.031 86.3351L227.013 85.8016C227.288 85.6474 227.596 85.4564 227.919 85.2929C230.317 84.325 228.282 82.7782 228.122 81.2972C227.955 81.7823 227.815 82.2765 227.704 82.7775L227.732 82.9243Z" fill="#FFC700"/>
<path d="M233.607 79.6251L233.1 78.7179C232.108 77.8128 231.501 77.9193 231.04 78.3222C230.936 78.7993 230.869 79.2836 230.84 79.7709L230.793 80.4292C230.614 80.0779 230.727 79.7622 230.84 79.7709C230.493 79.7717 230.148 79.7288 229.813 79.6434C229.748 79.6796 229.677 79.702 229.603 79.7092C229.53 79.7163 229.456 79.7081 229.385 79.6849C229.061 79.7568 228.775 79.9494 228.587 80.2239C229.35 81.2034 229.822 82.8882 231.533 83.0466C231.442 82.4251 231.387 81.7988 231.369 81.1708C231.454 80.8704 231.634 82.0329 231.716 83.052L231.887 83.1003C231.978 82.7785 231.962 82.2643 232.176 82.6491C232.162 82.7373 232.137 82.8236 232.104 82.9065L232.68 82.5828C233.635 82.0647 234.574 81.5191 234.574 81.5191L233.607 79.6251Z" fill="#FFC700"/>
<path d="M95.9442 109.834L89.1818 107.927C89.0896 107.858 88.9753 107.826 88.8608 107.836C88.7974 107.923 88.7673 108.03 88.7761 108.137L88.6611 108.544C88.6277 108.586 88.603 108.634 88.5885 108.686C88.5739 108.737 88.5698 108.791 88.5764 108.845C88.6727 108.904 88.784 108.936 88.8974 108.935L91.6152 109.702L90.9133 112.19C90.8407 112.448 90.7742 112.683 90.7076 112.919C90.0139 114.395 89.5682 115.975 89.3886 117.596C89.3099 117.875 89.402 118.04 89.7993 118.106C95.091 117.282 90.4113 112.905 92.5543 111.287L92.8992 110.064L95.6598 110.842C95.7621 110.907 95.8811 110.941 96.0022 110.939C96.0515 110.91 96.0941 110.871 96.1272 110.825C96.1602 110.778 96.183 110.725 96.1939 110.669L96.2605 110.433C96.2957 110.324 96.2877 110.205 96.2382 110.102C96.1402 110.028 96.018 109.994 95.8958 110.006L95.9442 109.834Z" fill="#FFC700"/>
<path d="M107.693 113.148L107.265 113.027C107.093 112.979 106.986 112.949 106.922 112.93C106.859 113.017 106.829 113.124 106.837 113.231L105.228 118.937C105.153 119.285 104.995 119.61 104.769 119.885C104.543 120.159 104.254 120.376 103.928 120.516C103.148 120.765 102.312 120.779 101.525 120.557C100.738 120.335 100.033 119.886 99.4981 119.266C99.2928 118.976 99.16 118.641 99.1107 118.289C99.0613 117.936 99.097 117.577 99.2145 117.241L100.794 111.642C100.857 111.555 100.887 111.449 100.878 111.342C100.878 111.342 100.707 111.293 100.536 111.245L99.9797 111.088C99.6801 111.004 99.494 111.09 99.4153 111.369L98.6166 114.201C96.669 115.782 97.0748 117.865 98.3023 119.902C98.5085 120.199 98.7632 120.459 99.0559 120.67C99.6853 121.165 100.409 121.527 101.182 121.733C101.956 121.963 102.769 122.035 103.571 121.944C104.257 121.871 104.909 121.605 105.451 121.177C105.97 120.736 106.339 120.144 106.506 119.483L108.134 113.712C108.213 113.433 108.099 113.262 107.8 113.178L107.693 113.148Z" fill="#FFC700"/>
<path d="M116.357 120.108C115.74 120.284 115.084 120.261 114.481 120.042L111.849 119.299L112.865 115.695L115.797 116.522C116.356 116.619 116.856 116.926 117.196 117.38C117.326 117.607 117.403 117.861 117.421 118.123C117.439 118.385 117.398 118.648 117.301 118.892C117.256 119.156 117.146 119.406 116.981 119.618C116.817 119.83 116.602 119.999 116.357 120.108ZM117.627 120.767C118.122 120.396 118.476 119.866 118.627 119.266C118.776 118.876 118.83 118.457 118.787 118.042C118.743 117.627 118.603 117.229 118.376 116.879C117.834 116.18 117.064 115.693 116.201 115.501L112.263 114.391C111.964 114.306 111.777 114.392 111.699 114.671L109.279 123.252C109.2 123.531 109.313 123.702 109.613 123.787L110.062 123.913C110.121 123.94 110.185 123.953 110.25 123.952C110.314 123.95 110.378 123.933 110.435 123.903C110.498 123.816 110.529 123.709 110.52 123.602L111.464 120.256L114.438 121.095L115.078 125.05C115.091 125.13 115.116 125.207 115.152 125.28L115.409 125.352L116.18 125.569C116.386 125.213 116.49 124.806 116.479 124.394C116.469 123.983 116.345 123.582 116.121 123.237C116.056 122.894 116.012 122.558 115.941 122.237L115.773 121.194C116.409 121.19 117.028 120.993 117.55 120.629L117.627 120.767Z" fill="#FFC700"/>
<path d="M127.295 127.686L126.831 126.791C126.166 125.954 124.601 124.54 125.579 122.547C125.811 122.38 126.168 122.18 126.476 121.989L130.136 119.825C130.171 119.775 130.188 119.715 130.184 119.654C130.205 119.622 130.216 119.585 130.214 119.546C130.214 119.546 130.214 119.546 130.086 119.51L128.93 119.184C128.887 119.153 128.834 119.138 128.781 119.142L125.725 120.967L125.148 121.29C125.103 122.598 123.284 122.085 123.284 122.085C120.679 124.523 126.136 126.062 126.11 127.954C126.163 128.086 126.228 128.213 126.304 128.332L126.454 128.375L127.631 128.707L127.738 128.737C127.768 128.685 127.785 128.626 127.786 128.565L127.31 127.713L127.295 127.686Z" fill="#FFC700"/>
<path d="M123.314 120.75C123.375 120.535 123.435 120.321 123.514 120.042L124.034 118.197C124.097 118.11 124.128 118.004 124.119 117.897C124.119 117.897 123.948 117.848 123.776 117.8L123.327 117.673C123.027 117.589 122.863 117.681 122.784 117.96L122.233 119.912C120.597 121.535 121.642 124.794 121.032 126.22C120.99 126.37 120.965 126.456 121.179 126.516C121.643 124.546 122.373 122.648 123.348 120.875L123.314 120.75Z" fill="#FFC700"/>
<path d="M135.989 130.115L132.737 129.197L133.626 126.044L136.515 126.859C137.649 127.179 137.649 127.179 137.827 126.14L133.91 125.036L134.8 121.882L140 123.349C140.098 123.423 140.22 123.457 140.342 123.445L140.47 123.157L140.536 122.921C140.573 122.792 140.603 122.685 140.615 122.642C140.517 122.568 140.395 122.534 140.273 122.546L134.195 120.831C133.896 120.747 133.709 120.833 133.631 121.112L131.211 129.693C131.132 129.972 131.245 130.143 131.545 130.228L135.825 131.435C136.041 130.014 139.165 132.863 138.78 130.786C137.907 130.527 136.999 130.403 136.088 130.42L135.989 130.115Z" fill="#FFC700"/>
<path d="M151.904 125.618L150.899 125.334C150.874 125.372 150.861 125.417 150.862 125.463L146.343 129.445L144.696 123.654C144.68 123.592 144.648 123.536 144.604 123.489L143.598 123.206C143.448 123.163 143.363 123.139 143.32 123.289C143.295 123.344 143.278 123.402 143.272 123.461L143.59 124.546C144.504 127.12 146.75 129.722 144.526 133.102C144.448 133.38 144.561 133.551 144.861 133.636L145.31 133.763C145.61 133.847 145.796 133.761 145.875 133.482L146.613 130.865L151.964 125.982C151.999 125.932 152.016 125.871 152.012 125.81C152.042 125.703 152.054 125.66 151.819 125.594L151.904 125.618Z" fill="#FFC700"/>
<path d="M64.3292 76.0443C64.3001 76.0755 64.2789 76.1132 64.2673 76.1542C64.2558 76.1953 64.2541 76.2385 64.2626 76.2803C69.323 72.4273 67.8726 67.0853 70.0816 62.7755C65.1334 66.3127 66.5838 71.6547 64.2436 76.0201L64.3292 76.0443Z" fill="#FFC700"/>
<path d="M72.3532 77.9833C72.9963 78.6441 73.7506 79.1861 74.5815 79.5844C75.2964 79.9623 76.041 80.2808 76.808 80.5367L77.6212 80.766C79.7612 81.3696 82.4576 82.1301 83.9009 80.4529C85.8498 77.0656 82.977 73.2446 79.514 71.4341L79.0181 71.0627L78.3017 70.4901C77.9834 70.2051 77.7357 69.8498 77.5779 69.4522C77.4408 69.0079 77.4459 68.5316 77.5925 68.09C77.6695 67.7075 77.8453 67.3518 78.1024 67.0586C78.3594 66.7653 78.6887 66.5447 79.0573 66.4188C79.6869 66.228 80.3544 66.2011 80.9969 66.3405L81.7673 66.5578C82.6125 67.3289 84.4315 67.8419 86.0178 69.262C86.2719 68.361 86.7922 66.5161 84.8481 66.0373L84.0344 65.6457C83.4513 65.4033 82.8515 65.2031 82.2397 65.0468C80.8354 64.5839 79.3217 64.5697 77.9079 65.0061C77.3207 65.1902 76.7906 65.5228 76.3686 65.9716C75.9466 66.4205 75.647 66.9706 75.4986 67.5688C75.237 68.3319 75.2654 69.1645 75.5783 69.9072C75.8714 70.5842 76.3077 71.1893 76.857 71.6806C77.57 72.3012 78.316 72.8827 79.0918 73.4225L79.8477 73.9368L80.4813 74.3934C82.3989 75.2122 83.7068 77.6191 82.2844 79.1401C80.862 80.6611 79.5452 78.3675 77.8186 79.2469L77.1552 79.0598C76.5328 78.8631 75.9331 78.6008 75.3661 78.2772C74.6537 77.9222 74.006 77.4499 73.4499 76.8799C73.3762 76.8434 73.2964 76.8209 73.2145 76.8135C73.2145 76.8135 73.0647 76.7713 72.9582 76.9033L72.1598 77.6045C72.1291 77.6646 72.1106 77.7302 72.1053 77.7976C72.075 77.9048 72.0448 78.0121 72.256 78.1643L72.3532 77.9833Z" fill="#FFC700"/>
<path d="M91.9514 69.8472L96.3812 71.0966L95.6611 73.6494C95.3283 74.8293 94.814 76.6528 94.566 77.5323L92.7508 83.968C92.6237 84.4185 92.7986 84.6995 93.3122 84.8443C98.062 82.5017 97.5318 77.4193 98.3764 72.3773C98.5156 71.8839 98.5882 71.6264 98.5882 71.6264L102.997 72.8698C103.188 72.9474 103.402 72.9498 103.595 72.8766C103.672 72.8362 103.738 72.779 103.79 72.7094C103.842 72.6398 103.877 72.5595 103.894 72.4744L104.002 72.0882C104.035 72.0007 104.049 71.9072 104.044 71.8139C104.038 71.7206 104.013 71.6295 103.97 71.5466C103.844 71.3831 103.66 71.2734 103.456 71.2395L92.4354 68.131C92.2507 68.0542 92.0431 68.0539 91.8581 68.1302C91.7815 68.1814 91.7163 68.248 91.6666 68.3256C91.6168 68.4032 91.5836 68.4903 91.5691 68.5814L91.4602 68.9675C91.426 69.046 91.4102 69.1312 91.4142 69.2166C91.4181 69.3021 91.4416 69.3855 91.4829 69.4603C91.6009 69.622 91.778 69.7303 91.9756 69.7614L91.9514 69.8472Z" fill="#FFC700"/>
<path d="M112.545 76.8597L112.999 79.9986C113.065 80.5035 113.111 80.7482 113.142 80.9654C112.987 82.3945 113.164 83.8398 113.661 85.1877L113.049 84.8993C112.055 84.5211 111.081 84.0918 110.131 83.6132L107.542 82.8828L112.538 76.8812L112.545 76.8597ZM101.894 87.2647L103.156 87.6208C103.273 87.6892 103.406 87.7265 103.541 87.7295C103.649 87.6919 103.742 87.6207 103.807 87.5264L106.462 84.3382L109.586 85.2194C114.343 84.2451 112.527 90.6809 116.165 91.707C115.491 87.8657 115.105 83.979 115.009 80.0793C115.07 79.8648 114.932 79.6174 114.907 79.3787L114.247 75.0009C114.23 74.8502 114.185 74.704 114.114 74.5698C114 74.4949 113.866 74.457 113.729 74.4612L112.852 74.2137C112.746 74.1379 112.618 74.1016 112.488 74.1111C112.345 74.1759 112.221 74.2766 112.128 74.4033L101.697 86.8155C101.667 86.9228 101.642 87.0086 101.636 87.03C101.63 87.0515 101.558 87.3089 101.921 87.4115L101.894 87.2647Z" fill="#FFC700"/>
<path d="M122.908 93.192L123.636 93.3972C127.251 90.7347 125.626 86.3393 127.556 82.5296C127.625 82.2251 127.71 81.9244 127.81 81.6286L128.191 82.5699C129.418 86.4128 130.309 90.6244 132.9 94.1343C133.035 94.4735 133.183 94.7698 133.272 95.0266L133.604 95.815C133.654 95.9609 133.734 96.0942 133.84 96.2059C133.967 96.2715 134.105 96.3105 134.247 96.3206L134.996 96.5319C135.181 96.6086 135.388 96.6089 135.573 96.5326C135.733 96.422 135.846 96.2556 135.89 96.066L139.774 82.2936C139.836 82.1091 139.827 81.9082 139.748 81.7304C139.63 81.5687 139.453 81.4604 139.256 81.4294L138.442 81.2C137.972 81.0672 137.676 81.2153 137.549 81.6658L134.348 93.0142L133.665 91.3394L133.428 90.7863C132.135 87.1794 129.932 84.5894 129.683 81.7864C129.588 81.5399 129.513 81.2864 129.458 81.0281L128.56 78.8063C128.51 78.6604 128.429 78.5271 128.323 78.4154C128.183 78.3461 128.03 78.3031 127.874 78.2887L127.168 78.0895C126.676 77.9506 126.358 78.0927 126.231 78.5432L122.329 92.38C122.202 92.8305 122.376 93.1115 122.869 93.2503L122.908 93.192Z" fill="#FFC700"/>
<path d="M145.844 92.0647L147.149 92.4329C149.289 93.0365 152.252 92.8531 153.556 95.1896C153.935 97.288 152.007 100.681 149.658 99.3471L149.508 99.3048C148.372 98.7572 147.198 98.2943 145.994 97.92C145.746 97.7969 145.478 97.7211 145.202 97.6967L144.346 97.4553L145.865 92.0707L145.844 92.0647ZM147.659 85.629L152.773 87.0715C153.544 87.2297 154.241 87.6378 154.756 88.2329C154.941 88.5315 155.053 88.8699 155.083 89.2204C155.113 89.5709 155.059 89.9235 154.927 90.2495C154.848 90.6006 154.691 90.9295 154.467 91.2114C154.244 91.4932 153.959 91.7208 153.636 91.8771C152.893 92.1831 152.065 92.205 151.308 91.9386L146.172 90.4899L147.57 85.5344L147.659 85.629ZM145.791 84.06L141.888 97.8968C141.761 98.3473 141.936 98.6282 142.428 98.7671L144.568 99.3707C148.048 100.63 150.787 101.403 154.482 99.851C155.059 99.318 155.47 98.6296 155.665 97.8688C155.943 97.0426 155.916 96.1441 155.588 95.3374C155.26 94.5306 154.653 93.8692 153.878 93.474C154.629 93.4199 155.346 93.1372 155.932 92.6637C156.503 92.2026 156.915 91.5734 157.109 90.8652C157.283 90.3228 157.336 89.7489 157.264 89.1842C157.191 88.6194 156.996 88.0777 156.691 87.5976C155.905 86.496 154.742 85.7229 153.423 85.4251L146.682 83.5238C146.189 83.385 145.893 83.5331 145.766 83.9836L145.791 84.06Z" fill="#FFC700"/>
<path d="M162.312 103.055L162.87 103.699C163.087 103.915 163.327 104.107 163.586 104.271L164.158 104.618C166.473 105.853 169.092 106.399 171.708 106.192L172.52 105.934C173.018 105.718 173.485 105.437 173.91 105.099C174.764 104.387 175.375 103.426 175.656 102.349L178.252 93.1462C178.379 92.6957 178.183 92.4087 177.691 92.2699L176.963 92.0646C176.772 91.9871 176.558 91.9847 176.364 92.0579C176.205 92.1685 176.092 92.3349 176.048 92.5245L173.428 101.813C173.277 102.383 173.009 102.915 172.641 103.375C172.463 103.587 172.261 103.779 172.041 103.946C163.132 106.783 163.89 97.1316 165.348 93.0268L166.268 89.766C166.325 89.577 166.308 89.3737 166.221 89.1969C166.1 89.0386 165.924 88.9312 165.728 88.8958L164.979 88.6845C164.508 88.5518 164.212 88.6999 164.085 89.1504L161.49 98.3535C161.16 99.414 161.17 100.551 161.52 101.604C161.706 102.115 161.958 102.599 162.269 103.043L162.312 103.055Z" fill="#FFC700"/>
<path d="M180.753 109.507C180.753 109.507 181.203 109.634 181.887 109.827C185.078 109.082 188.217 111.96 190.64 112.296C190.717 112.251 190.782 112.188 190.832 112.114C190.881 112.039 190.912 111.955 190.923 111.866L191.026 111.501C191.097 111.322 191.095 111.122 191.021 110.944C190.882 110.796 190.7 110.696 190.501 110.659C181.8 110.219 184.269 104.987 185.542 98.0972L186.299 95.4157C186.36 95.2312 186.351 95.0304 186.273 94.8525C186.146 94.6891 185.962 94.5794 185.759 94.5454L185.031 94.3402C184.539 94.2014 184.243 94.3495 184.116 94.8L182.785 99.5196C182.735 99.7752 182.664 100.026 182.573 100.27C182.016 102.244 181.762 103.145 181.163 105.269L180.213 108.637C180.086 109.087 180.261 109.368 180.753 109.507Z" fill="#FFC700"/>
<path d="M213.808 129.669L182.564 120.857C168.713 118.2 155.553 112.52 141.562 109.292L117.038 102.375L116.396 102.194C101.493 98.2681 87.8184 94.4112 73.4381 90.5173L72.3253 90.2034C62.7805 87.3492 53.4572 83.9553 43.5931 81.6594L34.3911 79.064L33.7135 81.4667L44.6702 84.557C53.8515 87.0077 63.1369 89.5803 72.5265 92.275L73.6393 92.5888C88.0843 96.6631 101.759 100.52 116.247 104.769L141.349 111.849C154.916 114.448 168.976 120.382 182.651 123.498L213.039 132.069L213.723 129.645L213.808 129.669Z" fill="#FFC700"/>
<path d="M120.532 46.4121L120.817 45.4038C120.956 44.9104 121.095 44.417 121.095 44.417L123.235 45.0206C124.538 44.5776 124.944 46.6606 125.615 45.3446L125.664 45.173C125.7 45.0443 125.718 44.9799 125.73 44.937C125.656 44.8824 125.565 44.8567 125.474 44.8646L120.873 43.5669C120.797 43.5156 120.707 43.4902 120.616 43.4945C120.57 43.5643 120.546 43.6468 120.549 43.7304L119.558 46.5078C119.529 46.5737 119.517 46.6462 119.526 46.7178C119.534 46.7894 119.561 46.8575 119.605 46.9148C119.703 47.0418 119.838 47.1362 119.991 47.1857C121.767 47.6866 123.586 48.1997 123.973 50.347C124.488 48.5236 122.908 47.0821 120.661 46.4483L120.532 46.4121Z" fill="#FFC700"/>
<path d="M118.623 50.6442L119.238 51.0029C119.528 51.14 119.839 51.2278 120.158 51.2625C121.255 52.6141 122.696 51.0288 123.87 50.3873C122.03 49.8682 120.616 51.4382 118.816 49.7955L118.687 49.7593L118.343 50.079C118.328 50.0964 118.317 50.117 118.31 50.1393C118.304 50.1616 118.303 50.1849 118.307 50.2077C118.291 50.2252 118.28 50.2457 118.274 50.268C118.268 50.2903 118.267 50.3136 118.27 50.3364L118.681 50.6838L118.623 50.6442Z" fill="#FFC700"/>
<path d="M136.789 51.7616L137.153 51.8642C137.105 51.8184 137.047 51.785 136.984 51.7671C136.92 51.7492 136.853 51.7473 136.789 51.7616Z" fill="#FFC700"/>
<path d="M133.339 54.9805L133.703 55.0831C133.787 55.1356 133.883 55.1628 133.981 55.1616C134.03 55.0847 134.055 54.9952 134.054 54.9042L134.913 51.8579L135.405 51.9968L136.069 52.1839C136.355 51.8246 136.553 51.6952 136.737 51.7006C136.556 51.6093 136.386 51.4992 136.229 51.372L135.629 51.203L135.137 51.0642L135.839 48.5757L139.969 49.7407C140.043 49.7953 140.134 49.821 140.226 49.8131C140.255 49.7775 140.277 49.7362 140.289 49.6919C140.302 49.6476 140.305 49.6012 140.299 49.5557L140.365 49.3197C140.53 49.2272 140.572 49.077 140.572 49.077C140.498 49.0224 140.407 48.9966 140.315 49.0046L135.415 47.6224C135.179 47.556 135.072 47.5258 134.982 47.8476L133.082 54.5836C133.021 54.7982 132.991 54.9054 133.333 55.002L133.339 54.9805Z" fill="#FFC700"/>
<path d="M138.976 52.6098C138.343 52.4419 137.725 52.2212 137.129 51.95C137.628 52.554 137.823 54.3226 138.976 52.6098Z" fill="#FFC700"/>
<path d="M141.027 56.4771C142.121 55.4655 142.245 58.4649 143.762 57.9201L146.18 58.6021C146.254 58.6567 146.345 58.6825 146.437 58.6745C146.46 58.6445 146.478 58.6101 146.488 58.5733C146.499 58.5365 146.502 58.498 146.497 58.46L146.552 58.2669C146.601 58.1986 146.625 58.115 146.618 58.031C146.618 58.031 146.49 57.9948 146.361 57.9585L144.221 57.3549C143.579 57.0116 140.58 57.1615 142.274 54.6751C142.913 55.8511 144.608 53.3647 144.874 54.8758L145.495 55.0509L145.966 55.1837C146.049 55.2361 146.146 55.2634 146.244 55.2621C146.29 55.1923 146.314 55.1098 146.311 55.0262L146.432 54.5971C146.458 54.5643 146.478 54.5265 146.489 54.4859C146.5 54.4454 146.504 54.4029 146.498 54.3611C146.42 54.2991 146.32 54.2709 146.22 54.2827L145.236 54.005L144.551 53.8119C141.39 54.2869 143.085 51.8005 143.722 51.2622L143.843 50.8332L147.973 51.9981C148.047 52.0527 148.139 52.0785 148.23 52.0705C148.281 51.9948 148.307 51.9045 148.303 51.8131L148.369 51.5771C148.396 51.5443 148.415 51.5065 148.427 51.4659C148.438 51.4254 148.441 51.3829 148.436 51.3412C148.362 51.2865 148.271 51.2608 148.179 51.2687L143.407 49.9227C143.171 49.8563 143.064 49.8262 142.974 50.1479L142.889 50.4483C141.963 52.503 141.443 54.3479 140.723 55.9977C140.717 56.1057 140.741 56.2133 140.791 56.309C140.842 56.4046 140.917 56.4849 141.009 56.5414L141.027 56.4771Z" fill="#FFC700"/>
<path d="M151.15 56.2984L153.611 56.9926C154.054 57.1004 154.454 57.3424 154.755 57.6859C154.867 57.849 154.938 58.0365 154.963 58.2328C154.988 58.4291 154.966 58.6286 154.899 58.8149C154.859 58.9858 154.784 59.1469 154.681 59.2888C154.577 59.4306 154.447 59.5503 154.296 59.6407C154.104 59.7313 153.895 59.782 153.682 59.7897C153.47 59.7974 153.258 59.7619 153.059 59.6855L150.406 58.9371L151.15 56.2984ZM152.039 53.1449L154.522 53.8451C154.911 53.9241 155.267 54.1214 155.541 54.4103C155.692 54.7205 155.723 55.0757 155.63 55.4082C155.536 55.7406 155.323 56.0269 155.032 56.2123C154.668 56.3567 154.263 56.366 153.893 56.2384L151.368 55.5261L152.039 53.1449ZM149.454 59.5256L152.835 60.4793C153.309 60.6327 153.813 60.6716 154.305 60.5927C154.706 60.5401 155.079 60.3618 155.373 60.0833C155.644 59.8138 155.842 59.4788 155.947 59.1106C156.081 58.7071 156.067 58.2691 155.906 57.8757C155.746 57.4824 155.451 57.1595 155.074 56.9652C155.436 56.9397 155.781 56.8025 156.063 56.5725C156.345 56.3502 156.546 56.0404 156.635 55.6916C156.725 55.4296 156.754 55.1504 156.719 54.8756C156.685 54.6007 156.587 54.3377 156.435 54.1067C156.049 53.5855 155.482 53.2275 154.847 53.103L151.53 52.1674C151.487 52.1482 151.44 52.1389 151.393 52.1403C151.346 52.1417 151.3 52.1536 151.259 52.1753C151.217 52.1969 151.181 52.2277 151.153 52.2654C151.125 52.303 151.105 52.3465 151.096 52.3926L149.196 59.1287C149.18 59.1727 149.174 59.2199 149.178 59.2667C149.182 59.3135 149.197 59.3587 149.221 59.3989C149.246 59.4391 149.279 59.4733 149.318 59.499C149.357 59.5246 149.402 59.5411 149.448 59.547L149.454 59.5256Z" fill="#FFC700"/>
<path d="M115.72 53.6466C116.074 53.439 116.47 53.3157 116.879 53.2865C117.288 53.2572 117.698 53.3227 118.077 53.4779C118.643 53.6048 119.156 53.903 119.546 54.3322L114.547 58.1329C114.253 57.388 114.24 56.5611 114.51 55.8066C114.65 54.9678 115.078 54.204 115.72 53.6466ZM119.956 56.6478C119.895 56.8623 119.835 57.0769 119.774 57.2914C119.605 57.8921 120.112 60.0267 118.371 60.3C118.299 60.4146 118.198 60.5084 118.079 60.5722C117.96 60.6361 117.826 60.6677 117.691 60.664C117.118 60.1551 115.039 60.5645 114.726 58.8087L115.515 58.2208L119.746 55.014C119.965 55.525 120.023 56.0906 119.913 56.6358L119.956 56.6478ZM113.92 59.2068C114.114 59.4081 114.325 59.5916 114.551 59.7553C114.828 61.4776 117.821 61.3492 118.656 61.5846C119.815 60.5319 120.569 59.1053 120.786 57.5536C120.889 57.2745 120.97 56.9876 121.028 56.6955C121.169 55.9333 121.059 55.1461 120.713 54.453C120.441 53.9945 120.076 53.5979 119.643 53.2882C119.209 52.9786 118.716 52.7626 118.194 52.654C117.696 52.4754 117.166 52.403 116.638 52.4415C116.11 52.48 115.596 52.6286 115.128 52.8776C114.663 53.1814 114.264 53.5762 113.955 54.0383C113.646 54.5004 113.433 55.0202 113.33 55.5664C112.965 56.5949 113.02 57.7254 113.482 58.7127C113.596 58.9225 113.735 59.1173 113.896 59.2926L113.92 59.2068Z" fill="#FFC700"/>
<path d="M124.311 55.5374L128.591 56.7445L123.16 62.1602C123.138 62.1918 123.128 62.2294 123.129 62.2675C123.129 62.2675 123.129 62.2675 123.258 62.3037L124.178 62.5632L129.437 57.5156L129.659 57.3004C129.765 57.2144 129.862 57.1175 129.948 57.0115C130 56.9195 130.029 56.8165 130.033 56.7112C130.059 56.6784 130.079 56.6405 130.09 56.6C130.102 56.5594 130.105 56.517 130.1 56.4752C130.016 56.4228 129.92 56.3955 129.821 56.3967L124.493 54.8938C124.425 54.8445 124.341 54.8209 124.257 54.8274C124.257 54.8274 124.227 54.9347 124.197 55.0419L124.136 55.2564C124.11 55.2893 124.091 55.3271 124.079 55.3676C124.068 55.4082 124.065 55.4506 124.07 55.4924C124.138 55.5417 124.221 55.5653 124.305 55.5588L124.311 55.5374Z" fill="#FFC700"/>
<path d="M131.774 60.8612C131.603 60.8129 131.538 60.7948 131.472 61.0307L131.381 61.3525C131.369 61.3834 131.363 61.4166 131.365 61.4498C131.368 61.483 131.377 61.5152 131.393 61.5442C131.409 61.5732 131.432 61.5982 131.459 61.6173C131.486 61.6365 131.517 61.6493 131.55 61.6549L135.466 62.7595C135.497 62.7718 135.53 62.7771 135.563 62.7749C135.596 62.7727 135.628 62.7632 135.657 62.7469C135.686 62.7306 135.711 62.7081 135.73 62.6809C135.75 62.6538 135.762 62.6227 135.768 62.5899L135.859 62.2681C135.907 62.0965 135.925 62.0321 135.69 61.9657L131.774 60.8612Z" fill="#FFC700"/>
<path d="M143.322 65.0451L142.79 61.282L140.369 64.2121L143.322 65.0451Z" fill="#FFC700"/>
<path d="M153.526 66.3018C151.913 66.1246 152.703 70.2846 151.138 68.8706C150.478 67.6886 150.993 65.8651 150.764 64.8742L150.686 64.2501L150.332 62.2281C150.329 62.1902 150.317 62.1534 150.299 62.1202C150.28 62.087 150.255 62.0582 150.224 62.0357L150.01 61.9753L149.604 61.8606C149.368 61.7942 149.24 61.758 149.149 62.0798L148.544 64.225C148.026 65.7582 147.665 67.3403 147.467 68.9466C147.424 69.0968 147.406 69.1611 147.663 69.2335C148.328 67.9729 148.884 66.6578 149.326 65.3025C149.447 64.8734 149.556 64.4873 149.623 64.2513L149.732 63.8651L149.8 64.2781C149.733 64.5141 149.909 64.9573 149.965 65.4131C150.445 67.7254 149.93 69.5489 151.749 70.0619C152.924 69.4205 153.444 67.5756 154.257 66.7397C154.535 66.4283 154.79 66.0979 155.021 65.7509L155.317 65.4405L155.208 65.8267C155.093 66.2342 154.984 66.6204 154.875 67.0065C154.34 68.1566 153.916 69.3557 153.611 70.5871C156.583 70.4526 154.386 67.8411 155.723 67.6857C155.85 67.2352 155.983 66.7633 156.098 66.3557L156.703 64.2105C156.753 64.1421 156.776 64.0585 156.77 63.9745C156.691 63.9124 156.591 63.8842 156.492 63.896L156.107 63.7874L155.871 63.721C155.833 63.7242 155.797 63.7356 155.764 63.7542C155.73 63.7728 155.702 63.7982 155.679 63.8289L153.94 65.8165C153.819 66.0214 153.68 66.2146 153.523 66.3936L153.526 66.3018Z" fill="#FFC700"/>
</svg>
