<svg width="181" height="190" viewBox="0 0 181 190" fill="none" xmlns="http://www.w3.org/2000/svg">
<path d="M0 6.34984V6.55861H0.329217C0.364573 6.33384 0.364573 6.10489 0.329217 5.88013L0.086636 6.38464L0 6.34984Z" fill="#21B0B7"/>
<path d="M2.85919 0.939433C3.15375 0.939433 2.85919 0.643686 2.6166 0C2.52997 0.191366 2.44333 0.365335 2.37402 0.556701C2.49531 0.330541 2.70324 0.800258 2.85919 0.904639V0.939433Z" fill="#21B0B7"/>
<path d="M170.396 70.2487C172.527 72.2841 172.354 74.9111 173.134 77.9207C173.238 78.2513 173.342 78.5818 173.428 78.895C173.515 79.2081 173.428 79.1907 173.55 79.3299C173.85 78.5794 173.98 77.7712 173.931 76.9639C174.71 77.8859 174.728 76.9639 175.04 76.6681C174.78 75.5374 174.191 73.9194 173.827 72.6321C173.265 71.705 172.756 70.7466 172.302 69.7616C171.661 70.0399 170.76 69.5528 169.755 68.7874C169.755 68.9613 169.894 69.1353 169.98 69.3093C170.067 69.4832 170.24 69.9355 170.396 70.2487Z" fill="#21B0B7"/>
<path d="M177.049 95.4742C177.188 95.4742 177.361 95.4742 177.587 95.6482C177.387 95.9152 177.224 96.2077 177.101 96.518C177.102 98.1121 176.997 99.7045 176.789 101.285C177.537 101.078 178.234 100.717 178.834 100.224C179.614 99.5451 178.505 95.7352 175.94 90.6205C175.94 90.7771 175.94 90.9162 175.94 91.0554C176.528 92.4604 176.88 93.9536 176.98 95.4742H177.049Z" fill="#21B0B7"/>
<path d="M57.2492 62.3679L57.9077 64.1076C57.9557 64.2208 57.9963 64.337 58.0289 64.4555C57.1972 65.0992 59.7617 66.1952 58.826 66.6128H58.3928C57.9423 66.9259 57.076 66.8737 57.0933 66.6128H56.6081L55.0833 66.5084L57.2492 62.4375V62.3679ZM53.1253 69.7094C53.2049 69.73 53.2884 69.73 53.3679 69.7094C53.4266 69.6699 53.4743 69.616 53.5065 69.5528L54.6501 67.3956L56.5561 67.5348H56.92C58.826 67.0651 59.5018 69.7268 60.3854 68.9266C60.3893 67.2567 59.9465 65.6165 59.1032 64.1772L58.9993 63.8641L57.9423 61.0284C57.9093 60.9403 57.8625 60.8581 57.8037 60.7848C57.7307 60.7596 57.6514 60.7596 57.5784 60.7848H57.0413C56.9692 60.7548 56.8882 60.7548 56.816 60.7848C56.7426 60.8466 56.6834 60.9238 56.6428 61.011L52.1377 69.4311V69.5528C52.1377 69.6746 52.1377 69.7442 52.3456 69.7442H53.1253V69.7094Z" fill="#21B0B7"/>
<path d="M66.3978 65.9343C67.6627 65.0296 65.2369 62.2461 69.1008 62.4549H69.5513C69.8277 62.4509 70.102 62.5028 70.358 62.6074C70.614 62.712 70.8464 62.8672 71.0415 63.0638C71.3676 63.5089 71.5047 64.0657 71.4227 64.6121C71.4285 64.8857 71.3794 65.1576 71.2781 65.4117C71.1769 65.6658 71.0257 65.8968 70.8336 66.0908C70.3858 66.4237 69.826 66.5674 69.2741 66.491L66.3631 66.2822C66.3631 66.2822 66.3631 66.1256 66.3631 65.8647L66.3978 65.9343ZM65.6354 70.5792C65.7473 70.6205 65.8701 70.6205 65.9819 70.5792C66.0556 70.4911 66.0983 70.381 66.1032 70.2661L66.2938 67.413L69.2048 67.6218C70.1005 67.761 71.0148 67.5424 71.7519 67.0129C72.0574 66.7268 72.2989 66.3788 72.4602 65.9918C72.6215 65.6049 72.699 65.188 72.6876 64.7687C72.7403 64.3625 72.7074 63.9497 72.591 63.5571C72.4745 63.1644 72.2772 62.8008 72.0118 62.4897C71.358 61.866 70.4878 61.5227 69.586 61.5328H69.1528C67.8523 61.5652 66.5511 61.5303 65.2542 61.4285C65.2542 62.2983 65.0636 64.038 65.0636 65.221C65.055 65.3426 65.055 65.4647 65.0636 65.5863C64.9076 67.8131 64.7344 70.1617 64.7344 70.1617C64.7344 70.4401 64.8557 70.5792 65.1502 70.5966H65.6007L65.6354 70.5792Z" fill="#21B0B7"/>
<path d="M77.1065 63.0464L78.562 63.1508H78.8392C79.9828 63.2551 80.8491 63.3073 81.7155 63.3595C81.6275 64.3259 81.6275 65.2984 81.7155 66.2648C81.6791 66.385 81.6203 66.4972 81.5422 66.5953C81.476 66.7 81.3942 66.7938 81.2997 66.8737C80.8563 67.2012 80.3018 67.3388 79.7575 67.2564L76.8466 67.0651L77.1238 63.029L77.1065 63.0464ZM76.1535 71.3273C76.2756 71.3403 76.3984 71.3095 76.5 71.2403C76.5737 71.159 76.6166 71.0544 76.6213 70.9446L76.8119 68.0915L79.7229 68.3002C80.6208 68.4345 81.5354 68.2096 82.27 67.674C82.5758 67.4038 82.8217 67.0722 82.9918 66.7006C83.1619 66.329 83.2525 65.9257 83.2576 65.5167C83.2663 65.3603 83.2663 65.2035 83.2576 65.047C82.893 64.28 82.3413 63.6178 81.6536 63.1221C80.966 62.6264 80.1648 62.3131 79.3244 62.2113H78.8045L76.3441 62.0374C76.0495 62.0374 75.8936 62.1417 75.8762 62.4201L75.2871 70.8924C75.2871 71.1533 75.4084 71.3099 75.703 71.3273H76.1535Z" fill="#21B0B7"/>
<path d="M87.6585 65.5863C87.6585 65.4645 87.6585 65.3601 87.6585 65.2384C87.8664 62.0721 90.2749 64.8556 91.5571 64.1598C91.6745 64.194 91.7856 64.2468 91.8863 64.3163C91.9895 64.3701 92.0832 64.4407 92.1636 64.5251C92.325 64.7182 92.4427 64.9443 92.5085 65.1876C92.5744 65.4309 92.5867 65.6857 92.5447 65.9342C92.5524 66.1903 92.498 66.4443 92.3864 66.6746C92.2747 66.9049 92.1091 67.1045 91.9036 67.2564C91.3721 67.5375 90.7651 67.6411 90.1709 67.5522L87.5545 67.3782C87.5545 67.3782 87.5545 66.4735 87.6758 65.6385L87.6585 65.5863ZM86.3243 72.0058H86.7748C86.8867 72.047 87.0095 72.047 87.1213 72.0058C87.195 71.9177 87.2377 71.8076 87.2426 71.6926L87.4679 68.4046L90.4308 68.596L91.7477 72.1449C91.7704 72.2277 91.819 72.3008 91.8863 72.3537C91.9607 72.3687 92.0372 72.3687 92.1116 72.3537H92.8913C93.0299 72.3537 93.1165 72.3537 93.1165 72.1971C93.1227 72.1568 93.1227 72.1157 93.1165 72.0754L91.7477 68.509C92.3424 68.3719 92.8844 68.0635 93.3071 67.6217C93.693 67.1752 93.9188 66.6117 93.9483 66.0212C94.0021 65.6311 93.966 65.2337 93.8429 64.8597C93.7197 64.4857 93.5127 64.1451 93.2378 63.864C92.9534 63.5997 92.617 63.3982 92.2502 63.2725L91.7477 63.1333C90.2615 63.1197 88.7786 62.9918 87.3119 62.7506H86.9134C86.6188 62.7506 86.4629 62.855 86.4456 63.1333L85.8564 71.5882C85.8564 71.8666 85.9777 72.0058 86.2723 72.0232L86.3243 72.0058Z" fill="#21B0B7"/>
<path d="M100.861 64.5772H101.277C102.251 64.7981 103.243 64.932 104.24 64.9773C105.851 66.8388 104.864 68.4567 105.02 70.353L104.864 70.7009C104.695 71.0116 104.479 71.2934 104.223 71.536C103.855 71.8551 103.424 72.0928 102.958 72.2337C102.492 72.3745 102.002 72.4154 101.52 72.3536C101.029 72.3445 100.545 72.2348 100.099 72.0314C99.6516 71.828 99.2508 71.5351 98.9206 71.1706C98.3036 70.3106 98.0371 69.2465 98.1755 68.1958C98.1777 67.1429 98.5878 66.1321 99.3191 65.3775C99.7531 64.9845 100.287 64.7196 100.861 64.612V64.5772ZM96.8933 68.0566C96.8082 68.706 96.8548 69.3661 97.0305 69.9969C97.2062 70.6278 97.5073 71.2164 97.9156 71.7273C98.8252 72.6732 100.072 73.2176 101.381 73.2409C102.028 73.3545 102.693 73.3223 103.326 73.1466C103.96 72.9709 104.546 72.6561 105.044 72.2249C105.541 71.7937 105.937 71.257 106.202 70.6534C106.468 70.0499 106.597 69.3946 106.579 68.7351C106.663 68.0871 106.613 67.4289 106.435 66.8007C106.256 66.1726 105.951 65.5876 105.54 65.0817C105.54 64.9947 105.384 64.9077 105.28 64.8208C104.275 63.1854 102.421 64.8208 101.138 63.5508H100.723C99.8425 63.6246 99.0069 63.9711 98.3314 64.5424C97.8548 64.9876 97.4737 65.5259 97.2115 66.1241C96.9493 66.7224 96.8115 67.3682 96.8066 68.0218L96.8933 68.0566Z" fill="#21B0B7"/>
<path d="M110.946 65.795C110.896 65.6298 110.839 65.4672 110.773 65.3079C110.634 64.8904 110.53 64.612 110.53 64.612C110.504 64.535 110.463 64.464 110.409 64.4033C110.324 64.3786 110.234 64.3786 110.149 64.4033H109.386C109.248 64.4033 109.161 64.4032 109.161 64.5772C109.161 64.7512 109.161 64.5772 109.161 64.699L109.768 66.4387L109.872 66.717C110.045 69.0482 112.54 70.9793 112.609 73.9194C112.609 73.9194 112.713 73.9194 112.817 73.9194C114.948 73.6932 114.203 71.9013 115 71.3968L115.174 71.1011C116.473 68.6307 118.241 65.3427 118.241 65.3427C118.246 65.3023 118.246 65.2613 118.241 65.2209C118.241 65.1049 118.171 65.0353 118.033 65.0121H117.253C117.167 64.9921 117.079 64.9921 116.993 65.0121C116.919 65.0546 116.864 65.1227 116.837 65.2035L114.654 69.3788C114.603 69.4867 114.545 69.5913 114.481 69.6919C114.238 71.0315 114.169 71.9013 112.436 71.7795C113.493 69.2222 110.946 68.1784 110.894 65.9342L110.946 65.795Z" fill="#21B0B7"/>
<path d="M122.538 67.1869C122.538 66.6302 122.538 66.1952 122.538 66.1952L127.736 66.5606C127.849 66.5944 127.969 66.5944 128.082 66.5606C128.154 66.4793 128.191 66.3732 128.186 66.2648V66.0213C128.206 65.9744 128.216 65.9242 128.216 65.8734C128.216 65.8226 128.206 65.7724 128.186 65.7255C128.088 65.6619 127.974 65.6259 127.857 65.6211L121.81 65.2036C121.515 65.2036 121.359 65.308 121.342 65.5863L120.753 74.0586C120.753 74.3196 120.874 74.4762 121.169 74.4936H121.498H122.399C123.601 74.1569 124.883 74.2554 126.02 74.7719H126.887H127.216C127.328 74.8132 127.451 74.8132 127.563 74.7719C127.599 74.7361 127.628 74.6926 127.646 74.6444C127.664 74.5963 127.671 74.5448 127.666 74.4936V74.25C127.707 74.1496 127.707 74.0373 127.666 73.9369C127.573 73.8627 127.456 73.8256 127.337 73.8325H126.54H125.986C124.634 73.4323 122.832 74.1804 122.035 73.2584C122.035 72.3885 122.156 71.5187 122.208 70.6488C123.407 70.762 124.614 70.762 125.812 70.6488H126.28C126.335 70.6739 126.394 70.6868 126.454 70.6868C126.513 70.6868 126.572 70.6739 126.627 70.6488C126.703 70.5693 126.747 70.4636 126.748 70.3531V70.1443C126.748 70.0052 126.748 69.9008 126.748 69.8486C126.656 69.7709 126.539 69.7279 126.419 69.7268H125.951C124.998 69.1353 122.226 71.5709 122.642 67.9871C122.642 67.7958 122.642 67.6044 122.642 67.413L122.538 67.1869Z" fill="#21B0B7"/>
<path d="M132.467 71.8841V71.5536C132.606 69.466 132.796 66.9086 132.796 66.9086L134.771 67.0304C135.751 67.0322 136.695 67.3978 137.423 68.0568C137.742 68.4585 137.974 68.9233 138.102 69.4209C138.23 69.9186 138.253 70.4378 138.168 70.9447C138.154 71.7546 137.914 72.5444 137.474 73.2237C137.421 73.3121 137.357 73.3938 137.284 73.4672C136.695 74.1805 135.828 74.1283 134.321 74.2849H133.94C132.363 73.9196 132.363 73.9196 132.467 71.9189V71.8841ZM131.757 75.1548H132.207C133.299 73.0323 136.521 76.7553 137.908 74.4415L138.168 74.2327C139.003 73.3646 139.469 72.2041 139.467 70.9969C139.572 70.3487 139.53 69.6852 139.344 69.0557C139.158 68.4262 138.833 67.8469 138.393 67.3609C137.362 66.5183 136.065 66.0739 134.737 66.1084L131.964 65.917C131.67 65.917 131.514 66.0214 131.497 66.2997L130.925 74.7546C130.925 75.033 131.046 75.1721 131.323 75.2069L131.757 75.1548Z" fill="#21B0B7"/>
<path d="M32.4195 132.651C32.5646 132.462 32.7335 132.293 32.922 132.147C33.7509 131.524 34.7887 131.25 35.8157 131.382C36.2966 131.411 36.7729 131.493 37.2365 131.625C37.6079 131.742 37.963 131.906 38.2935 132.112C38.338 132.13 38.3875 132.13 38.4321 132.112C38.4321 132.112 38.5187 132.112 38.5707 132.112L38.8999 131.642C38.911 131.603 38.911 131.561 38.8999 131.521C38.8999 131.521 38.8999 131.416 38.796 131.364C38.3921 131.077 37.9402 130.865 37.4618 130.738C36.8952 130.583 36.3148 130.484 35.729 130.442C34.37 130.258 32.9936 130.621 31.8997 131.451C31.5299 131.771 31.219 132.154 30.9814 132.582L30.8081 132.947C30.3811 134.838 30.665 136.821 31.6052 138.514L31.8131 138.723C33.7191 140.463 35.5731 138.914 37.4791 140.01C37.6677 139.981 37.8533 139.934 38.0336 139.871C38.3028 139.807 38.5643 139.714 38.8133 139.593C38.8784 139.573 38.9339 139.53 38.9692 139.471C38.9826 139.385 38.9826 139.297 38.9692 139.21L39.2291 135.47C39.2402 135.409 39.2381 135.346 39.2232 135.286C39.2083 135.226 39.1807 135.17 39.1425 135.122C39.0959 135.079 39.0412 135.046 38.9816 135.025C38.9221 135.004 38.8589 134.996 38.796 135L35.7464 134.774C35.6333 134.74 35.5129 134.74 35.3998 134.774C35.3609 134.808 35.331 134.851 35.3128 134.9C35.2947 134.948 35.2889 135.001 35.2959 135.052V135.278C35.2554 135.379 35.2554 135.491 35.2959 135.592C35.3866 135.672 35.5041 135.715 35.6251 135.713L37.8776 135.87L37.6697 138.827L37.1845 138.967C34.6721 139.628 29.5952 137.523 32.2289 132.895C32.2861 132.787 32.3498 132.682 32.4195 132.582V132.651Z" fill="#21B0B7"/>
<path d="M48.3258 135.696C48.0001 135.873 47.6388 135.974 47.2688 135.992H46.9049H46.4718H46.2465C45.4321 135.139 43.5781 136.757 43.994 135.226C44.0013 135.122 44.0013 135.017 43.994 134.913C43.994 133.852 44.1846 132.147 44.1846 132.147L47.0955 132.356C47.6389 132.342 48.1687 132.528 48.5857 132.878C48.7502 133.069 48.871 133.295 48.9399 133.538C49.0087 133.781 49.0238 134.037 48.9842 134.287C48.9825 134.544 48.9241 134.797 48.8133 135.029C48.7024 135.26 48.5419 135.464 48.3431 135.626L48.3258 135.696ZM50.2837 134.443C50.3474 134.042 50.3162 133.632 50.1928 133.245C50.0694 132.858 49.8572 132.506 49.5733 132.217C48.9269 131.659 48.1038 131.35 47.2515 131.347L43.3529 131.068C43.0583 131.068 42.9024 131.173 42.885 131.451L42.2959 139.923C42.2959 140.184 42.4172 140.341 42.7118 140.358H43.1623C42.5905 138.392 45.1895 138.619 44.4445 136.757C46.1772 136.879 47.0436 136.949 47.3901 138.392L47.4941 138.671L48.1872 140.411C48.2084 140.485 48.2505 140.551 48.3084 140.602C48.3878 140.624 48.4717 140.624 48.551 140.602H49.3134C49.4694 140.602 49.5387 140.602 49.556 140.463C49.5733 140.324 49.556 140.463 49.556 140.341L48.0832 136.635C48.6897 136.516 49.2422 136.205 49.66 135.748C50.0482 135.303 50.2743 134.739 50.3011 134.148L50.2837 134.443Z" fill="#21B0B7"/>
<path d="M55.9492 133.017H56.469L60.2983 133.278C60.3527 133.303 60.4118 133.316 60.4716 133.316C60.5314 133.316 60.5905 133.303 60.6449 133.278C60.683 133.239 60.7121 133.193 60.7301 133.142C60.748 133.09 60.7545 133.036 60.7488 132.982V132.756C60.7694 132.709 60.78 132.659 60.78 132.608C60.78 132.557 60.7694 132.507 60.7488 132.46C60.7046 132.42 60.6523 132.39 60.5955 132.372C60.5387 132.354 60.4787 132.348 60.4196 132.356L54.3724 131.938C54.0779 131.938 53.9219 132.042 53.9046 132.321C53.9046 132.321 53.9046 132.547 53.9046 132.947C53.9139 133.109 53.9139 133.272 53.9046 133.434C55.1695 134.148 55.0482 135.887 53.6273 136.914C53.6273 137.035 53.6273 137.157 53.6273 137.262C53.5061 139.123 53.3848 140.741 53.3848 140.741C53.3848 141.019 53.5061 141.158 53.8006 141.193L57.474 141.437H57.8205C58.523 141.359 59.232 141.359 59.9344 141.437C60.0557 139.697 58.2017 141.315 57.3354 140.428H57.0235L54.7536 140.271C54.7536 140.271 54.8402 139.036 54.9096 138.114C54.8991 137.946 54.8991 137.778 54.9096 137.61C55.9145 135.87 57.526 137.783 59.328 137.035C58.5829 135.296 56.7289 136.861 55.0482 135.87C55.9838 135.052 54.3724 133.191 56.0358 133.034L55.9492 133.017Z" fill="#21B0B7"/>
<path d="M69.8114 139.175C69.5861 138.601 68.7198 138.549 67.9747 138.758H67.6282L66.1034 138.653L68.2519 134.565L69.3955 137.679C69.3955 137.818 69.3955 137.923 69.5168 138.027C69.5311 138.46 69.6762 138.879 69.9327 139.227H69.8114V139.175ZM70.5391 137.436L69.0143 133.295C68.9813 133.207 68.9345 133.125 68.8757 133.052C68.8036 133.022 68.7226 133.022 68.6504 133.052H68.1133C68.0779 133.036 68.0395 133.028 68.0007 133.028C67.9619 133.028 67.9235 133.036 67.8881 133.052C67.8146 133.113 67.7555 133.191 67.7148 133.278L63.1924 141.68C63.1924 141.68 63.1924 141.802 63.1924 141.82C63.1924 141.837 63.1924 142.011 63.4003 142.011H64.18C64.2597 142.031 64.343 142.031 64.4226 142.011C64.4713 141.966 64.5123 141.913 64.5439 141.854L65.6875 139.697L67.2816 139.802H67.6108C70.3658 140.515 70.4178 139.645 71.3882 142.516H71.7694H72.1505C72.3065 142.516 72.3758 142.516 72.3931 142.359C72.3897 142.313 72.3897 142.266 72.3931 142.22C72.3931 142.22 72.3931 142.011 72.1852 141.663C71.9773 141.315 72.1852 141.42 72.0466 141.28C71.6067 140.818 71.2635 140.272 71.0373 139.674C70.8111 139.077 70.7065 138.44 70.7297 137.801C70.7297 137.697 70.6431 137.575 70.5911 137.47L70.5391 137.436Z" fill="#21B0B7"/>
<path d="M76.4999 142.359C76.4999 142.62 76.6212 142.776 76.9331 142.794H77.3663C77.4778 142.837 77.6012 142.837 77.7128 142.794C77.7892 142.714 77.8326 142.609 77.8341 142.498C77.8341 142.498 78.0247 139.715 78.1806 137.47C78.1806 137.349 78.1806 137.227 78.1806 137.105C78.329 136.719 78.3588 136.297 78.2661 135.894C78.1735 135.491 77.9626 135.125 77.6608 134.843C78.5272 134.843 78.5272 134.843 79.0297 134.67H79.3762L81.1089 134.791C81.2162 134.825 81.331 134.825 81.4382 134.791C81.4816 134.76 81.5158 134.718 81.5371 134.669C81.5585 134.62 81.5662 134.566 81.5595 134.513V134.287C81.5999 134.186 81.5999 134.074 81.5595 133.974C81.4671 133.896 81.3507 133.853 81.2302 133.852H80.4332H79.896C79.5495 134.235 79.6188 133.365 79.6188 133.365C77.8861 133.243 76.8984 134.93 75.3043 133.539H74.8712H74.4206C74.3148 133.497 74.1972 133.497 74.0914 133.539C74.0151 133.618 73.9717 133.724 73.9701 133.834V133.956C73.9357 134.052 73.9357 134.156 73.9701 134.252C74.0687 134.316 74.1823 134.352 74.2994 134.356H74.7325C77.6782 133.956 76.6385 136.514 76.7771 137.714V138.079C76.6385 140.167 76.4826 142.394 76.4826 142.394L76.4999 142.359Z" fill="#21B0B7"/>
<path d="M93.4804 141.263C93.4804 140.845 93.4804 140.445 93.567 140.132C93.8962 140.289 93.9655 139.419 94.0868 139.645H95.1438L96.7032 139.749C97.2513 139.757 97.7815 139.946 98.2107 140.289C98.3864 140.449 98.5206 140.65 98.6021 140.875C98.6836 141.099 98.7098 141.339 98.6785 141.576C98.6729 141.793 98.6239 142.006 98.5347 142.203C98.4454 142.4 98.3175 142.578 98.1587 142.724C97.9519 142.878 97.717 142.99 97.4672 143.052C97.2175 143.115 96.9579 143.128 96.7032 143.09L93.3764 142.863L93.4804 141.124V141.263ZM94.1908 135.939C95.1163 136.067 96.0549 136.067 96.9805 135.939C97.2565 135.953 97.5299 136 97.7949 136.079C97.993 136.137 98.1762 136.238 98.332 136.374C98.4605 136.517 98.5578 136.685 98.6175 136.868C98.6772 137.051 98.698 137.244 98.6785 137.436C98.6779 137.647 98.6292 137.856 98.5361 138.046C98.443 138.236 98.308 138.402 98.1414 138.532C97.7494 138.795 97.2751 138.907 96.8072 138.845H95.8195H95.525C93.1165 139.454 94.1561 136.914 94.2081 136.044L94.1908 135.939ZM92.0076 143.42C92.0076 143.698 92.1289 143.838 92.4061 143.855L96.6513 144.151C97.2385 144.215 97.8326 144.137 98.384 143.925C98.846 143.761 99.2457 143.457 99.5276 143.055C99.7893 142.662 99.9391 142.205 99.9608 141.733C100.024 141.223 99.9004 140.707 99.6137 140.282C99.3269 139.856 98.8961 139.55 98.4013 139.419C98.8268 139.293 99.2063 139.045 99.4929 138.706C99.7625 138.368 99.92 137.954 99.9434 137.523C99.9748 137.187 99.9303 136.848 99.8133 136.532C99.6963 136.215 99.5098 135.93 99.2677 135.696C98.6786 135.174 97.9218 134.884 97.1364 134.878H96.6686C95.0745 135.157 93.3937 134.165 92.4754 134.983C91.5571 135.8 92.2848 137.592 92.2501 139.227C92.2501 139.332 92.2501 139.454 92.2501 139.575C92.1115 141.576 91.9902 143.455 91.9902 143.455L92.0076 143.42Z" fill="#21B0B7"/>
<path d="M109.196 139.889C108.973 140.022 108.726 140.111 108.468 140.149H108.139C107.775 140.341 106.909 140.289 107.221 140.149H106.996C103.53 139.993 106.216 137.557 105.02 136.879C105.02 136.722 105.02 136.583 105.02 136.479V136.322H105.471H106.476H107.481H107.931C108.474 136.312 109.003 136.497 109.421 136.844C109.586 137.036 109.707 137.261 109.776 137.504C109.844 137.748 109.86 138.003 109.82 138.253C109.827 138.513 109.771 138.771 109.656 139.005C109.541 139.238 109.371 139.44 109.161 139.593L109.196 139.889ZM111.154 138.653C111.208 138.265 111.173 137.869 111.053 137.495C110.933 137.122 110.731 136.78 110.461 136.496C109.811 135.945 108.99 135.637 108.139 135.626L104.223 135.348C104.167 135.334 104.109 135.334 104.053 135.347C103.997 135.36 103.944 135.386 103.9 135.424C103.856 135.461 103.822 135.508 103.8 135.562C103.778 135.615 103.768 135.673 103.773 135.731L103.184 144.203C103.184 144.481 103.305 144.62 103.599 144.638H104.05C104.101 144.663 104.158 144.675 104.215 144.675C104.272 144.675 104.328 144.663 104.379 144.638C104.424 144.603 104.459 144.558 104.483 144.506C104.507 144.455 104.519 144.399 104.518 144.342C104.518 144.342 104.518 143.716 104.604 143.003C104.604 142.881 104.604 142.776 104.604 142.672C104.948 142.233 105.115 141.68 105.072 141.124C105.887 142.046 107.741 140.428 107.966 142.011C107.966 142.168 108.087 142.324 108.139 142.498L109.075 144.777C109.092 144.858 109.134 144.931 109.196 144.986C109.275 145.008 109.359 145.008 109.439 144.986H110.201C110.357 144.986 110.426 144.986 110.444 144.847C110.449 144.806 110.449 144.765 110.444 144.725L108.988 141.019C109.595 140.9 110.147 140.589 110.565 140.132C110.952 139.694 111.173 139.134 111.189 138.549L111.154 138.653Z" fill="#21B0B7"/>
<path d="M116.006 136.879C116.006 136.688 116.006 136.583 116.006 136.583C116.046 136.483 116.046 136.37 116.006 136.27C115.962 136.229 115.91 136.197 115.854 136.176C115.797 136.155 115.737 136.145 115.677 136.148H115.226C114.932 136.148 114.776 136.253 114.758 136.531C114.758 136.531 114.758 136.757 114.758 137.157C114.767 137.308 114.767 137.459 114.758 137.61C114.839 140.061 114.677 142.514 114.273 144.934C114.251 144.986 114.239 145.042 114.239 145.099C114.239 145.156 114.251 145.212 114.273 145.264C117.202 142.776 114.776 140.045 116.006 137.227C116.006 137.088 116.006 136.966 116.006 136.879Z" fill="#21B0B7"/>
<path d="M124.93 137.784L126.281 137.888C126.394 137.92 126.514 137.92 126.628 137.888C126.666 137.852 126.696 137.809 126.717 137.761C126.738 137.713 126.749 137.662 126.749 137.61V137.383C126.789 137.283 126.789 137.171 126.749 137.07C126.657 136.993 126.54 136.95 126.42 136.948L119.697 136.496C119.645 136.471 119.589 136.459 119.532 136.459C119.475 136.459 119.419 136.471 119.368 136.496C119.291 136.576 119.248 136.681 119.246 136.792V137.018C119.24 137.071 119.244 137.124 119.259 137.175C119.274 137.226 119.299 137.273 119.333 137.314C119.423 137.38 119.533 137.417 119.645 137.418L122.348 137.61C122.348 137.61 122.348 137.731 122.348 137.957C123.543 140.584 122.556 142.272 121.863 144.76C121.863 144.899 121.863 145.038 121.863 145.142C121.863 145.247 121.863 145.49 121.863 145.49C121.863 145.751 121.984 145.908 122.279 145.925H122.712C122.834 145.942 122.958 145.91 123.058 145.838C124.254 143.229 121.845 140.428 124.41 137.714H125.068L124.93 137.784Z" fill="#21B0B7"/>
<path d="M133.524 143.49H133.16C132.848 142.985 131.982 142.933 130.7 143.107H130.284H130.128L132.276 139.036C132.276 139.036 132.606 139.906 132.952 140.88L133.056 141.246C132.034 142.115 134.581 143.159 133.524 143.542V143.49ZM134.564 141.75L133.039 137.592C133.001 137.506 132.955 137.425 132.9 137.349C132.826 137.334 132.749 137.334 132.675 137.349H132.138C132.059 137.324 131.974 137.324 131.895 137.349C131.828 137.405 131.775 137.477 131.739 137.557L127.217 145.96C127.217 145.96 127.217 146.082 127.217 146.099C127.217 146.117 127.217 146.273 127.425 146.291H128.187C128.308 146.291 128.395 146.291 128.43 146.291C128.462 146.276 128.491 146.254 128.515 146.227C128.539 146.2 128.557 146.168 128.568 146.134L129.712 143.977H130.422H130.734C133.749 142.985 134.373 146.517 135.794 146.795H136.175C136.331 146.795 136.4 146.795 136.4 146.621C136.405 146.575 136.405 146.528 136.4 146.482C136.4 146.482 136.002 145.386 135.465 143.959L135.361 143.646C136.366 143.124 133.766 142.95 134.737 142.011L134.616 141.68L134.564 141.75Z" fill="#21B0B7"/>
<path d="M139.813 146.743C139.813 147.004 139.935 147.16 140.229 147.178H140.68C140.797 147.193 140.915 147.162 141.009 147.091C141.053 147.056 141.086 147.01 141.108 146.959C141.129 146.907 141.137 146.851 141.13 146.795C141.13 146.795 141.304 144.429 141.46 142.202C141.46 142.011 141.46 141.889 141.46 141.767C141.664 140.617 141.797 139.455 141.858 138.288C141.285 138.658 140.821 139.177 140.516 139.789C140.211 140.401 140.076 141.085 140.125 141.767C140.134 141.883 140.134 141.999 140.125 142.115C139.969 144.342 139.813 146.708 139.813 146.708V146.743Z" fill="#21B0B7"/>
<path d="M153.623 139.175C153.645 139.126 153.656 139.073 153.656 139.019C153.656 138.965 153.645 138.911 153.623 138.862C153.532 138.782 153.415 138.738 153.294 138.74H152.843C152.786 138.727 152.727 138.727 152.67 138.74C152.614 138.753 152.561 138.779 152.515 138.816C152.47 138.853 152.434 138.9 152.41 138.953C152.385 139.006 152.374 139.065 152.375 139.123L151.907 146.082L146.865 138.584C146.826 138.505 146.766 138.439 146.692 138.392C146.602 138.362 146.505 138.362 146.415 138.392H145.981C145.687 138.392 145.531 138.497 145.514 138.775L145.288 141.959C145.279 142.075 145.279 142.191 145.288 142.307C145.084 143.94 144.968 145.584 144.942 147.23C144.917 147.297 144.917 147.371 144.942 147.439C145.222 147.384 145.491 147.284 145.739 147.143L146.432 146.552C147.038 145.682 146.64 144.429 146.432 143.177C146.418 143.044 146.418 142.909 146.432 142.776L146.588 140.41L151.63 147.891V147.995L152.219 147.474L152.115 147.369C153.727 145.943 151.734 147.943 152.323 147.578L151.769 148.1C151.843 148.114 151.92 148.114 151.994 148.1C152.279 147.831 152.586 147.586 152.912 147.369L153.623 139.175Z" fill="#21B0B7"/>
<path d="M152.913 147.874C152.958 147.84 152.993 147.795 153.014 147.743C153.035 147.691 153.042 147.634 153.034 147.578V147.421L152.497 147.961C152.548 147.985 152.605 147.998 152.662 147.998C152.719 147.998 152.775 147.985 152.826 147.961L152.913 147.874Z" fill="#21B0B7"/>
<path d="M25.1415 88.3241C25.1415 88.3241 23.5301 86.4626 22.5944 87.2802C21.3122 93.2996 21.7627 99.4581 21.1562 105.147C21.1562 105.46 21.1562 105.704 21.1562 105.912V106.539C21.1562 107.113 21.4162 107.443 22.0399 107.478H22.733C27.446 106.782 30.7382 109.635 35.2606 107.321C31.8991 105.338 27.446 106.782 24.1539 104.834C24.1539 104.642 24.1539 104.416 24.1539 104.138C24.4831 98.71 25.7133 93.5431 25.2108 88.2719L25.1415 88.3241Z" fill="#21B0B7"/>
<path d="M44.843 93.9434C44.9816 93.7346 45.1375 93.5258 45.2935 93.3345C45.4532 93.142 45.627 92.9618 45.8133 92.7952C46.6209 92.11 47.5619 91.6014 48.5763 91.3019C49.5906 91.0024 50.6561 90.9184 51.7045 91.0555C52.7558 91.0669 53.7929 91.3005 54.7482 91.7411C55.7035 92.1818 56.5557 92.8195 57.2492 93.6128C58.4191 95.1568 59.0027 97.0689 58.8953 99.0058C58.8953 99.319 58.8953 99.6495 58.8953 99.9975C58.9541 102.181 58.2004 104.309 56.7814 105.965C56.647 106.11 56.4957 106.238 56.3309 106.347C55.17 107.913 54.3036 107.861 52.3283 107.843C52.0456 107.861 51.762 107.861 51.4793 107.843H50.5783C49.4552 107.789 48.3514 107.529 47.3208 107.078L46.645 106.73C41.4468 104.329 43.6474 98.3622 44.9123 93.9434H44.843ZM43.9246 107.687C44.1325 107.861 44.3405 108 44.5657 108.157C46.3302 109.232 48.3417 109.832 50.405 109.896H51.3753H52.3803C57.5785 110.627 58.7914 105.46 61.1825 102.938C61.2759 102.653 61.3511 102.362 61.4078 102.068C61.5345 101.442 61.6155 100.809 61.6504 100.171C61.8386 98.7605 61.7374 97.3258 61.353 95.9556C60.9687 94.5853 60.3092 93.3085 59.4151 92.2037C58.4399 91.1881 57.2722 90.3786 55.9808 89.8229C54.6893 89.2672 53.3002 88.9764 51.8951 88.9678C50.4842 88.781 49.0502 88.8802 47.6782 89.2597C46.3061 89.6392 45.0239 90.2913 43.9073 91.1772C42.697 92.2331 41.7931 93.5975 41.2909 95.1263L41.0136 95.9788C39.1423 100.659 41.5681 103.442 42.9196 106.417C43.0511 106.67 43.2079 106.909 43.3875 107.13C43.5707 107.335 43.7676 107.526 43.9766 107.704L43.9246 107.687Z" fill="#21B0B7"/>
<path d="M86.8783 99.6321C87.1209 95.9266 87.3461 92.6734 87.3461 92.6734C87.3636 92.5544 87.3573 92.4331 87.3275 92.3166C87.2978 92.2001 87.2452 92.0907 87.1728 91.9949C86.9817 91.812 86.7265 91.712 86.4624 91.7165H85.4921C84.851 91.7165 84.5218 91.9427 84.4871 92.5342L84.1059 97.9446C84.1059 98.1708 84.1059 98.3969 84.1059 98.6231C83.5591 101.453 83.2175 104.32 83.0836 107.2C79.9301 102.607 77.6775 97.1966 73.7789 93.0387L73.2937 92.3254L72.618 91.3512C72.5227 91.181 72.3928 91.0328 72.2368 90.9163C72.0515 90.8313 71.8513 90.784 71.6477 90.7771H70.712C70.0536 90.7771 69.7243 91.0033 69.6724 91.5948L68.4248 109.879C68.4248 110.47 68.7194 110.784 69.3085 110.818H70.2788C70.4083 110.842 70.5411 110.838 70.6691 110.808C70.7972 110.778 70.9179 110.723 71.0239 110.644C71.1098 110.561 71.1773 110.461 71.2221 110.35C71.2669 110.239 71.2879 110.12 71.2838 110.001L72.3061 95.0567L72.618 95.5091L72.9645 96.0484C75.8235 98.8145 78.1627 103.355 80.138 106.643C80.2593 106.852 80.3806 107.026 80.5019 107.2L80.8831 107.774L81.2469 108.296C81.992 110.61 83.6034 112.471 85.3881 111.775C86.0472 111.205 86.5022 110.433 86.6837 109.579C86.8651 108.725 86.7631 107.834 86.3931 107.043L86.2025 106.121C85.8817 104.195 86.0852 102.217 86.7916 100.398C86.7916 100.154 86.7916 99.8931 86.7916 99.6321H86.8783Z" fill="#21B0B7"/>
<path d="M97.1363 109.061C97.1363 108.765 97.1363 108.417 97.1363 108.035C97.1363 103.807 96.5818 99.3363 98.6091 95.1611C99.8455 95.2287 101.085 95.1996 102.317 95.0741L103.253 95.1611C103.911 95.2378 104.561 95.3776 105.193 95.5786L106.094 95.8917C111.431 98.6752 110.27 102.955 108.901 107.095C108.8 107.34 108.684 107.578 108.555 107.809C108.224 108.433 107.77 108.984 107.221 109.427C105.464 110.607 103.338 111.102 101.243 110.818L96.963 110.523C96.963 110.523 96.963 109.966 97.067 109.061H97.1363ZM100.931 112.941C103.793 113.365 106.712 112.748 109.161 111.201C109.797 110.766 110.354 110.224 110.807 109.6C110.946 109.392 111.085 109.166 111.223 108.922C114.689 104.19 112.765 94.4304 106.181 93.5953L105.315 93.3692C104.357 93.151 103.384 93.0114 102.404 92.9516C102.404 92.9516 102.023 92.9516 101.347 92.9516C93.8095 91.3511 95.7501 101.111 94.4159 106.869V107.548C94.2426 109.914 94.1387 111.619 94.1387 111.619C94.1387 112.21 94.3812 112.523 95.0224 112.575L100.983 112.975L100.931 112.941Z" fill="#21B0B7"/>
<path d="M122.036 104.381C122.027 102.101 122.911 99.908 124.496 98.2751C125.303 97.589 126.244 97.0798 127.259 96.7803C128.273 96.4807 129.339 96.3973 130.388 96.5354C131.313 96.517 132.234 96.6827 133.096 97.0231C133.957 97.3635 134.744 97.8718 135.409 98.5186C136.074 99.1655 136.605 99.9382 136.972 100.792C137.338 101.646 137.532 102.564 137.544 103.494C137.544 103.79 137.544 104.155 137.544 104.468C137.007 107.443 136.833 110.053 135.222 111.427C135.049 111.671 134.841 111.949 134.685 112.123C133.073 114.193 130.526 113.132 128.326 113.219C128.031 113.219 127.737 113.115 127.459 113.062C125.959 112.745 124.607 111.938 123.613 110.766C122.287 108.922 121.722 106.634 122.036 104.381ZM127.234 115.15L128.187 115.289C134.702 117.029 138.583 111.949 140.403 105.651C140.42 105.327 140.42 105.002 140.403 104.677C140.553 102.152 139.741 99.6648 138.133 97.7184C137.156 96.687 135.982 95.8642 134.681 95.2992C133.38 94.7343 131.978 94.4387 130.561 94.4304C129.15 94.2395 127.715 94.3368 126.342 94.7165C124.97 95.0961 123.688 95.7503 122.573 96.6398C121.544 97.6025 120.72 98.7649 120.151 100.057C119.582 101.349 119.28 102.743 119.264 104.155C119.081 105.556 119.187 106.98 119.574 108.339C119.962 109.697 120.623 110.962 121.516 112.053C123.005 113.698 125.011 114.779 127.199 115.115L127.234 115.15Z" fill="#21B0B7"/>
<path d="M147.004 115.168C146.983 115.384 147.025 115.601 147.126 115.794C147.904 115.991 148.699 116.113 149.5 116.159C150.079 114.227 150.297 112.204 150.141 110.192C148.858 111.027 149.586 109.583 148.408 110.192C148.909 109.721 149.498 109.355 150.141 109.113C150.141 108.748 150.141 108.365 150.262 108C150.297 107.729 150.355 107.461 150.435 107.2C150.678 103.72 150.903 100.432 150.903 100.432L153.104 103.686C153.589 103.129 154.213 102.468 154.611 102.085L154.854 102.346C154.403 102.711 153.935 103.094 153.225 103.755L153.363 103.912L158.215 111.097C158.408 110.969 158.593 110.829 158.77 110.679L158.267 111.166V111.253C158.735 110.905 159.307 110.47 158.96 110.957L158.388 111.427L158.51 111.619C158.735 111.375 159.081 111.027 159.584 110.557C159.982 110.418 158.648 111.566 158.683 111.706C159.276 111.252 159.827 110.745 160.329 110.192L158.596 107.617C158.041 107.987 157.53 108.419 157.072 108.905C157.371 108.529 157.708 108.185 158.076 107.878C158.226 107.743 158.36 107.591 158.475 107.426L156.933 105.13C156.292 105.321 155.772 105.251 156.413 104.347L151.215 96.6572C151.119 96.482 150.982 96.3328 150.816 96.2223C150.638 96.1349 150.443 96.0874 150.245 96.0831H149.309C148.65 96.0831 148.304 96.3093 148.269 96.9008C148.269 96.9008 147.992 100.989 147.697 105.286C147.697 105.599 147.697 105.878 147.697 106.139C147.594 106.921 147.524 107.756 147.438 108.626C148.443 108.122 148.824 108.4 149.17 108.8C148.652 109.142 148.056 109.345 147.438 109.392C147.316 111.027 147.195 112.697 147.126 114.176C147.386 114.054 147.368 114.176 147.455 114.315L147.091 114.663C147.091 114.802 147.091 114.959 147.091 115.098L147.004 115.168Z" fill="#21B0B7"/>
<path d="M160.45 110.453C159.925 111.021 159.345 111.534 158.717 111.984L159.167 112.645C159.271 112.001 159.843 111.723 160.155 112.054C160.155 113.08 159.808 113.08 159.323 112.889L160.259 114.28C160.536 113.95 160.744 113.95 160.761 114.037C161.593 113.271 161.801 113.028 162.026 112.802L161.42 111.897H160.796C160.917 111.74 161.056 111.619 161.177 111.479L160.467 110.418L160.45 110.453Z" fill="#21B0B7"/>
<path d="M163.725 114.089C163.309 114.576 162.598 115.254 161.68 116.107C161.68 115.568 161.68 115.515 161.143 115.533C164.123 112.854 161.767 115.533 163.725 114.089ZM163.603 116.072C162.633 116.716 161.42 117.359 163.742 115.167C163.534 115.585 163.205 116.107 163.603 116.072ZM160.935 115.133C161.012 115.269 161.07 115.415 161.108 115.568L161.853 116.664C161.943 116.834 162.078 116.976 162.243 117.075C162.408 117.173 162.597 117.223 162.789 117.22H163.777C164.033 117.26 164.294 117.198 164.504 117.046C164.678 116.877 164.777 116.646 164.782 116.403C164.782 116.403 164.782 115.498 164.938 114.106C164.938 113.932 164.938 113.741 164.938 113.55C164.943 112.226 165.059 110.905 165.284 109.6C164.33 110.359 163.309 111.028 162.235 111.601C162.235 112.019 162.235 112.367 162.235 112.593C162.453 112.387 162.685 112.195 162.928 112.019C162.702 112.297 162.529 112.541 162.2 112.906C161.811 113.333 161.401 113.74 160.97 114.124C160.259 114.576 160.796 114.124 160.363 114.28L160.9 115.08L160.935 115.133Z" fill="#21B0B7"/>
<path d="M164.851 107.861C163.118 109.079 165.492 106.121 163.448 107.391C166.774 104.26 164.799 107.53 164.851 107.861ZM164.851 103.529C165.18 104.677 164.349 103.825 164.227 104.19C164.227 103.459 164.227 102.572 164.851 103.529ZM162.789 103.86C162.927 103.84 163.067 103.84 163.205 103.86L163.656 103.425C163.985 103.303 163.777 103.564 163.5 103.877C163.656 104.764 163.326 105.112 162.91 105.216V105.912C163.396 105.564 163.725 105.408 163.673 105.686C163.434 105.885 163.172 106.055 162.893 106.191C162.938 106.654 162.938 107.12 162.893 107.582L163.274 107.287C162.755 107.774 162.928 107.739 162.841 107.896C162.759 108.264 162.63 108.62 162.46 108.957V109.566V110.453C163.457 109.597 164.53 108.834 165.666 108.174C166.203 104.695 166.584 101.041 163.933 97.9794C163.318 98.8121 162.896 99.7722 162.698 100.79C162.501 101.807 162.532 102.856 162.789 103.86Z" fill="#21B0B7"/>
<path d="M102.733 17.9535C103.634 17.6404 103.912 17.6752 104.726 17.4142C104.726 17.4142 101.469 18.6494 102.733 17.9535ZM94.2258 16.2138C92.9089 18.1275 95.3001 18.3536 95.8026 19.554C96.9288 19.554 98.0551 19.4322 99.1814 19.3801C99.9438 19.0321 100.152 19.1017 99.7878 19.3801C102.057 19.1786 104.341 19.5369 106.441 20.4239L107.481 20.5804C112.525 21.3759 117.485 22.6397 122.296 24.3556L122.816 24.5469L123.803 24.9471L124.808 25.3646C130.457 25.6255 132.692 31.036 137.492 31.4535L138.324 31.9928C139.155 32.5669 140.056 33.1758 140.784 33.8195L141.668 34.4458C141.929 34.0656 142.225 33.7104 142.551 33.3846C142.777 33.1758 141.876 31.871 141.91 31.3839C142.222 31.0882 143.21 32.7583 143.539 32.6539C143.868 32.5495 143.539 31.0708 143.539 30.2357C142.863 29.766 142.188 29.2963 141.494 28.8614L140.611 28.2699C140.022 27.9567 139.45 27.6262 138.878 27.2956C138.583 27.1391 138.272 26.9651 137.942 26.7563C135.776 23.277 130.457 24.7209 128.326 21.92C128.031 21.7982 127.702 21.6243 127.407 21.4851C124.048 20.0048 120.57 18.8117 117.011 17.9187L116.387 17.7621C113.979 17.1185 111.536 16.5965 109.041 16.1616L108.382 16.0572C105.766 16.0572 104.033 15.9007 101.867 15.7093L101.451 15.6571C99.7533 15.7028 98.0585 15.4857 96.4264 15.0134H95.3521C94.3298 15.0134 93.3075 15.0134 92.2852 15.0134C92.6056 15.5356 92.7682 16.14 92.753 16.7531C92.753 16.8923 93.1688 16.7531 94.2258 16.2312V16.2138Z" fill="#21B0B7"/>
<path d="M47.875 33.6804L48.2909 33.8022L49.2265 32.9672C48.932 33.1411 48.1869 33.4891 47.875 33.6804Z" fill="#21B0B7"/>
<path d="M154.957 46.1539C155.581 46.8324 156.205 47.5457 156.828 48.259C156.726 48.0578 156.598 47.8707 156.447 47.7023C156.933 47.2422 157.53 46.9182 158.18 46.7628C157.876 45.5456 157.41 44.3752 156.794 43.2835C156.395 44.1881 155.061 42.6398 154.368 42.7789C153.987 42.8833 154.368 44.5186 154.177 44.971C153.987 45.4233 153.606 44.0837 153.38 44.0663C153.155 44.0489 153.38 44.1533 153.38 44.2751L154.385 45.2841C154.628 45.5451 154.853 45.8234 155.096 46.1365L154.957 46.1539Z" fill="#21B0B7"/>
<path d="M176.547 117.377C174.208 119.569 175.871 117.377 177.362 116.142C177.899 115.933 176.01 117.586 176.547 117.377ZM176.253 128.563L176.72 128.163L176.253 128.563C174.693 129.833 174.347 129.242 176.045 127.432C176.322 127.554 178.384 126.215 176.149 128.598C176.149 128.598 176.149 128.598 176.253 128.598V128.563ZM176.062 130.616C174.503 132.077 174.052 132.042 174.728 131.277C176.062 130.042 175.923 130.494 176.062 130.616ZM174.918 133.678C172.874 135.644 174.035 133.974 173.48 134.252C174.884 133.017 175.906 132.512 174.918 133.678ZM174 132.686L174.295 132.999C172.198 134.983 170.829 135.557 174 132.686ZM174.225 123.396C175.057 122.787 176.391 121.813 175.577 122.735C174.225 123.988 174.364 123.535 174.225 123.396ZM173.705 130.233C172.943 130.773 172.077 131.225 172.839 130.355C173.584 129.816 174.468 129.381 173.705 130.233ZM170.725 139.732C167.26 142.498 170.465 138.914 167.849 140.845L169.945 138.897C169.356 140.202 171.332 138.479 170.725 139.732ZM169.322 143.055C168.94 141.802 169.322 141.315 169.651 141.907C169.894 142.985 169.651 143.333 169.322 143.055ZM168.317 146.656C167.676 147.178 166.861 147.891 165.648 149.057C163.344 150.448 164.591 148.883 164.106 148.43C164.661 148.03 165.839 147.508 164.973 148.309C165.752 147.751 166.488 147.135 167.173 146.465C165.111 148.691 169.945 144.516 168.317 146.656ZM164.713 152.275C164.713 152.466 163.846 153.371 165.423 151.979C165.423 152.119 164.955 152.536 164.99 152.588C164.158 153.388 164.054 153.371 163.378 153.997C163.67 153.62 164.001 153.276 164.366 152.971C164.366 152.867 162.876 154.241 163.136 153.736L164.713 152.275ZM160.866 154.467C160.052 155.111 159.705 155.215 159.532 155.146C161.715 153.162 160.71 154.293 160.866 154.467ZM158.44 158.19C156.707 159.704 160.312 156.068 157.73 158.468C158.388 157.72 157.73 157.964 159.151 156.85C158.506 157.231 157.834 157.562 157.141 157.842C158.873 156.259 161.836 154.763 158.44 158.19ZM152.081 164.018L151.024 164.992C150.071 165.705 151.024 164.888 150.834 164.783L151.891 163.809C151.977 163.983 152.861 163.096 152.081 164.018ZM149.69 165.653C150.903 165.027 149.447 166.523 150.279 166.28C149.898 166.28 146.814 168.472 149.69 165.653ZM143.729 171.899C143.452 171.899 142.724 172.473 142.88 172.021C144.284 170.768 144.197 171.22 145.739 169.829C145.126 170.571 144.453 171.264 143.729 171.899ZM140.385 173.638C139.952 174.056 139.865 174.073 139.813 174.073C139.761 174.073 140.212 173.517 140.195 173.412C141.348 172.53 142.426 171.552 143.418 170.49C144.249 170.211 140.368 173.482 140.42 173.586L140.385 173.638ZM140.94 171.064C140.645 171.186 139.207 172.56 139.692 171.829C142.031 169.724 141.182 171.22 142.326 170.455C141.754 171.22 140.333 172.195 140.281 172.455C139.813 172.664 138.549 173.256 140.94 171.064ZM127.962 178.179C127.632 178.666 126.229 179.136 127.095 178.301C129.123 176.561 127.667 178.144 127.962 178.179ZM111.224 185.468C110.115 186.878 108.243 187.695 111.016 185.26C111.847 184.703 109.855 186.704 111.224 185.468ZM93.8964 188.948C94.9525 187.644 96.1114 186.428 97.3618 185.312C97.8123 185.312 95.0226 187.747 93.8964 188.948ZM92.9954 185.886C91.2626 187.8 92.2676 186.008 92.6661 185.503C95.2306 183.294 91.9384 186.756 92.9954 185.886ZM176.339 104.555C176.144 106.29 176.144 108.04 176.339 109.774C176.339 110.122 176.339 110.453 176.218 110.801C176.218 111.636 175.993 112.541 175.871 113.306C176.391 112.836 176.53 112.68 177.396 111.949C176.935 112.617 176.407 113.235 175.819 113.793C175.715 114.489 175.594 115.167 175.473 115.846C176.599 115.289 175.074 117.151 176.512 116.281L175.196 117.516C174.797 119.638 174.347 121.709 173.896 123.709C173.775 124.057 173.688 124.405 173.584 124.753C172.874 127.276 172.042 129.746 171.089 132.182C171.364 131.928 171.654 131.69 171.955 131.468C171.955 131.573 171.54 132.008 170.933 132.599V132.721C170.829 132.999 170.708 133.295 170.604 133.591C171.696 132.704 172.458 131.851 173.965 130.407C174.277 130.303 175.213 129.485 175.265 129.694C174.658 130.39 172.804 132.042 172.198 132.738C172.579 132.999 174.26 131.573 172.198 133.852C170.829 134.53 171.193 133.747 170.465 133.852C170.627 134.782 170.593 135.736 170.367 136.653C170.14 137.57 169.725 138.429 169.148 139.175H169.287L168.941 139.506C167.832 140.985 166.411 142.289 165.475 143.751C166.047 143.455 165.683 144.22 166.047 144.133C165.63 144.474 165.183 144.777 164.713 145.038C161.722 149.914 158.238 154.467 154.316 158.625L153.554 159.373C150.66 161.791 148.685 165.932 144.371 167.671L143.539 168.298C142.153 169.341 140.732 170.333 139.294 171.273L138.393 171.847C134.217 173.586 130.578 176.057 126.714 178.005L126.229 178.214C125.241 178.631 124.254 179.014 123.249 179.397L122.746 179.588C116.283 181.189 109.993 184.251 102.82 184.164H102.265C101.156 184.268 100.048 184.355 98.9213 184.407C98.7307 184.512 98.644 184.512 98.644 184.407C96.1316 184.529 93.5845 184.529 91.0201 184.407C90.4829 184.755 90.171 184.807 90.3443 184.407H88.9061C86.9482 184.268 85.0248 184.077 83.1015 183.798C82.5644 184.651 80.6584 186.008 79.2549 187.469H79.4282C82.3565 184.72 80.2772 187.052 81.646 186.095C81.0223 186.704 80.6064 187.173 80.2252 187.608L81.4381 187.8C83.2748 186.46 82.755 187.243 82.4777 187.939C84.9382 188.304 87.416 188.582 89.8938 188.756C90.0151 188.756 90.0497 188.756 90.0151 188.756C92.3196 188.93 94.6414 189.017 96.946 189C97.3403 188.677 97.7935 188.435 98.2802 188.287C98.0376 188.548 97.795 188.791 97.6217 189H97.9683C99.3891 187.852 99.3544 188.339 100.013 188.061C99.0772 188.913 98.7307 189.087 98.7653 188.843L98.6267 188.983H99.0772C99.597 188.617 100.03 188.321 99.4411 188.983H99.5624C100.065 188.358 100.648 187.802 101.295 187.33C100.706 188.043 100.307 188.565 100.03 188.965C103.31 188.812 106.575 188.434 109.803 187.834C109.803 187.643 110.184 187.191 111.102 186.303C110.392 187.765 117.461 180.702 115.313 183.45C113.684 184.79 111.068 187.069 111.847 187.034C111.485 187.277 111.109 187.497 110.721 187.695L111.483 187.539L111.847 187.156C113.58 185.573 111.951 187.678 113.823 186.112C114.724 185.294 114.776 185.138 114.776 185.033C116.647 183.294 115.902 184.546 115.694 185.033C114.706 185.938 115.209 185.173 114.446 185.816C114.071 186.26 113.729 186.731 113.424 187.225L113.875 187.104C114.291 186.575 114.755 186.085 115.261 185.642C116.994 184.355 114.914 186.356 114.498 186.93C115.425 186.166 116.288 185.328 117.08 184.425C116.716 184.633 117.444 183.59 116.318 184.651C118.241 182.737 117.669 184.494 117.461 184.86C116.11 186.112 116.439 185.434 115.729 186.06C114.342 187.469 116.456 185.764 115.503 186.738H115.659C116.439 186.077 117.479 184.999 118.172 184.494C118.934 184.494 120.338 184.494 121.013 184.39C120.286 185.016 119.974 185.312 119.679 185.59H119.991L120.58 185.033C119.281 186.512 122.07 183.885 121.932 184.355C121.273 184.999 120.961 185.225 120.615 185.521H120.875L121.984 184.442C122.19 184.739 122.489 184.96 122.833 185.068C123.378 184.858 123.878 184.545 124.306 184.146L125.311 183.763L126.818 183.189L127.338 182.963C128.845 182.193 130.439 181.609 132.086 181.224C132.813 180.684 133.194 180.545 133.16 180.771C133.823 180.434 134.413 179.967 134.893 179.397L135.412 179.136C138.069 177.708 140.648 176.14 143.14 174.439C142.859 174.573 142.57 174.689 142.274 174.787C145.583 171.934 143.054 173.621 144.007 172.403C145.965 170.664 143.851 173.134 146.45 170.82C145.861 171.881 145.878 172.09 147.559 170.959C149.101 169.394 146.606 171.464 147.836 170.211C152.688 165.862 151.041 167.01 147.975 169.289C150.032 167.534 151.939 165.607 153.675 163.531C154.282 163.322 152.74 164.766 151.804 165.758C152.719 164.961 153.68 164.217 154.68 163.531C154.68 163.774 152.376 165.706 152.722 165.636C153.779 164.905 157.591 161.321 156.742 162.591C155.98 163.27 156.413 162.591 155.547 163.409C154.559 164.766 156.118 163.287 157.851 161.669C157.955 161.93 157.21 162.522 155.841 163.74C156.366 163.253 156.948 162.833 157.574 162.487C158.752 161.235 159.861 159.947 160.918 158.625L161.369 158.051C160.173 159.216 158.995 160.312 159.359 160.173C158.406 161.304 157.418 161.756 158.111 160.939L156.032 162.922C156.118 162.609 154.957 163.705 155.252 163.166C156.552 161.756 159.359 159.199 160.329 158.051C160.866 157.581 159.861 159.06 159.081 159.895C157.505 161.443 158.284 160.312 156.361 162.226C155.772 163.148 158.717 160.052 158.094 160.974C159.549 159.617 160.537 158.486 162.183 157.007C163.24 155.563 164.228 154.084 165.129 152.588C165.336 152.31 165.544 151.979 165.752 151.701L166.792 150.118C166.792 150.118 166.792 150.118 166.636 150.118L167.069 149.718L167.589 148.935C167.242 149.265 166.896 149.613 166.532 150.013C167.728 148.535 166.532 149.718 166.203 149.648C165.683 150.118 165.839 150.083 165.77 150.24C163.673 152.153 166.012 149.718 164.522 151.005C165.215 150.153 165.839 149.84 167.104 148.5L167.017 148.396C166.437 148.826 165.892 149.303 165.388 149.822C165.25 149.387 167.485 147.856 169.062 146.343C168.473 146.986 168.507 147.073 168.767 146.952C169.062 146.465 169.356 146.012 169.634 145.525L170.171 144.603C172.48 141.511 174.271 138.062 175.473 134.391C174.745 134.896 173.983 135.278 174.71 134.391C175.011 134.148 175.336 133.939 175.681 133.765C176.253 132.025 176.755 130.285 177.223 128.546C176.809 128.917 176.286 129.142 175.733 129.189L177.465 127.554C178.263 124.388 178.973 121.117 179.787 117.794C179.787 117.446 179.909 117.081 179.978 116.733C180.359 114.414 180.654 112.094 180.862 109.774C180.498 108.435 179.995 106.852 179.268 104.921C177.691 102.781 177.188 104.155 176.357 104.434L176.339 104.555Z" fill="#21B0B7"/>
<path d="M49.2958 32.8628C50.6952 31.5521 52.3987 30.6133 54.2513 30.1315L55.187 29.6096L56.1227 29.1051L57.0583 28.6006C58.4666 27.649 59.978 26.8611 61.5634 26.252L62.5164 25.8867C65.9819 24.7037 68.7369 23.1553 72.5142 22.5638L73.4672 22.3029C78.3638 21.0055 83.3697 20.1668 88.4206 19.7977C89.0444 19.5542 89.027 19.6586 88.9577 19.7977L91.938 19.6586H92.943H94.2425C93.4045 19.0572 92.6474 18.3497 91.99 17.5535C91.0585 16.4318 89.8066 15.6241 88.4033 15.2397C86.1334 15.3963 83.8982 15.6399 81.6803 15.9704L80.658 16.127C79.2319 16.2338 77.814 16.4314 76.4128 16.7185C75.0613 18.058 77.851 17.31 76.8633 18.4582C74.8525 19.6187 72.7689 20.6473 70.6256 21.5374C68.0611 21.5374 69.3607 19.4672 66.9002 19.5542L62.759 21.0329L61.7887 21.433C60.3852 22.0593 59.0683 22.7726 57.7688 23.5033C56.036 25.3821 51.427 28.4962 53.2117 28.7223C51.1324 29.9401 49.0705 31.1057 47.0605 32.2017C47.719 32.3235 47.615 33.0368 49.1745 32.8454L49.2958 32.8628Z" fill="#21B0B7"/>
<path d="M28.1736 48.2243C26.9607 48.6593 27.2379 48.2243 26.6834 48.3635C28.2082 47.7546 27.827 48.1895 28.1736 48.2243ZM28.728 48.8158C27.3592 49.2334 29.6117 47.8938 28.1909 48.2939C30.4954 47.4763 28.8666 48.5549 28.728 48.8158ZM34.1861 42.5182C33.7529 42.7443 33.0945 43.0749 32.2628 43.4576C32.2628 43.4576 32.2628 43.3358 32.2628 43.2836C33.5277 42.6747 34.3247 42.3268 34.2034 42.5182H34.1861ZM35.4163 44.6406C33.545 45.6322 33.6836 45.0929 33.4237 45.0581C34.6886 44.5884 34.446 44.9537 35.4163 44.6406ZM79.8953 186.391C80.9899 185.611 82.0055 184.725 82.9275 183.746H82.5463H81.472C79.051 183.936 76.6306 183.371 74.5412 182.128C74.2119 182.024 73.8654 181.937 73.5015 181.798C72.7045 181.589 71.9074 181.345 71.1104 181.102L70.1227 182.059C69.8975 182.059 70.2613 181.676 70.9025 181.05C67.5256 180.063 64.2151 178.86 60.9913 177.449L60.4715 177.24C57.3676 176.153 54.4464 174.598 51.8079 172.63L50.9069 172.056L48.3251 170.316L47.4587 169.724C43.2136 167.411 40.8571 163.74 37.2184 161.165L36.4733 160.452C35.503 159.478 34.5673 158.486 33.649 157.46C33.4064 157.216 33.1811 156.955 32.9212 156.677C24.8921 147.806 19.0309 137.18 15.8019 125.641C15.8019 125.467 15.698 125.293 15.6287 125.101C13.4602 117.611 12.3634 109.85 12.3711 102.05V101.494C12.2252 100.077 12.2252 98.6484 12.3711 97.2314C12.3898 96.9628 12.4245 96.6956 12.4751 96.4312C13.4005 93.4422 13.8393 90.3228 13.7747 87.1934V86.6541C13.7747 86.4801 13.7747 86.3062 13.8613 86.1148L13.9652 85.5755C13.4281 81.3828 15.3861 78.0252 16.8935 74.8068C16.9653 74.6146 17.0522 74.4285 17.1535 74.2501C20.9618 63.561 26.9454 53.7851 34.7232 45.5452C33.6836 45.8932 34.1688 45.1799 34.4807 45.4408C34.6553 45.3974 34.82 45.3206 34.9658 45.2147H35.0525C38.6993 41.3562 42.709 37.8606 47.0256 34.7765C46.0353 35.0794 45.0634 35.4395 44.1146 35.8551C45.1715 34.533 43.0056 34.359 43.2829 33.2456C42.1566 33.7153 40.2333 34.6026 39.055 35.2462L37.7902 36.3597C40.3546 35.4724 37.6862 37.3861 39.6615 36.8816C37.3397 38.0645 39.0897 36.4814 37.1664 37.2817C37.4286 37.0029 37.7189 36.7522 38.0327 36.5336C37.7734 36.5742 37.5182 36.6382 37.2703 36.725C36.0574 37.8036 34.8619 38.8996 33.8049 40.0304C34.602 39.9434 35.5376 39.7694 35.5376 40.1174C35.5376 40.4653 32.1588 42.466 33.2678 42.379C30.1489 43.6838 31.9682 42.5008 31.743 42.379C23.3558 51.1644 16.898 61.619 12.787 73.0671L12.6311 73.6064C10.5864 84.6883 5.47492 95.6831 7.98736 107.339C7.98736 107.53 7.98736 107.722 7.98736 107.913C8.49754 115.526 10.0125 123.038 12.4924 130.251C12.6137 130.581 12.735 130.912 12.839 131.26C16.3044 141.907 22.6289 150.222 29.3691 159.425C29.6117 159.686 29.837 159.982 30.0796 160.243C32.8095 163.278 35.7448 166.121 38.8644 168.75L39.6788 169.394C47.9439 174.613 55.2733 182.181 65.5483 184.129L66.1028 184.286C67.5756 184.807 69.0658 185.277 70.5906 185.73L71.4916 185.99C73.7788 186.443 76.0486 186.86 78.2838 187.243L78.5091 186.965C80.5884 184.929 80.5884 185.538 79.8953 186.356V186.391Z" fill="#21B0B7"/>
<path d="M146.848 171.655C148.13 170.785 149.412 169.916 150.642 168.872C150.989 168.541 151.283 168.228 151.162 168.245C149.88 169.272 148.251 170.368 146.848 171.725V171.655Z" fill="#21B0B7"/>
<path d="M150.66 167.619C149.43 168.889 151.925 166.819 150.383 168.367C150.296 168.367 149.672 168.959 149.897 168.907C150.902 168.002 151.006 167.776 151.959 166.906C151.959 166.697 151.474 166.906 150.66 167.619Z" fill="#21B0B7"/>
<path d="M111.708 187.417H112.089C112.314 187.104 112.089 187.295 111.708 187.417Z" fill="#21B0B7"/>
<path d="M143.313 34.3937C143.336 34.8016 143.307 35.2108 143.227 35.6115C144.249 36.3595 145.237 37.1424 146.224 37.9426C145.492 36.7557 144.91 35.4817 144.491 34.1501C144.491 34.3937 144.162 33.837 143.989 33.7152C143.816 33.5934 144.284 34.3937 144.717 35.6984C143.313 32.7758 144.387 36.5335 143.296 34.3937H143.313Z" fill="#21B0B7"/>
<path d="M149.794 41.0045C150.193 39.5953 150.574 38.2036 151.301 38.0122C150.994 37.103 150.618 36.219 150.175 35.3679C149.499 34.7938 148.806 34.2197 148.113 33.6282C148.101 33.6972 148.101 33.7679 148.113 33.8369C148.113 34.3762 148.754 35.1243 148.841 35.8202C147.992 36.2203 147.628 37.5599 146.762 38.2731C147.524 38.8994 148.287 39.5431 149.014 40.2042L149.794 40.9001V41.0045Z" fill="#21B0B7"/>
<path d="M157.192 129.259C158.579 128.041 159.185 127.728 159.116 128.146C157.054 130.146 157.383 129.363 157.192 129.259ZM148.737 128.546C147.351 129.694 147.628 129.242 147.905 128.72C149.343 127.38 149.378 127.815 148.737 128.546ZM160.329 128.041L157.834 127.867C156.915 128.459 155.616 129.503 156.43 128.407L157.106 127.815L152.687 127.519H151.821C145.254 127.311 137.439 126.771 130.855 126.075H130.127L111.206 124.771H110.496C107.638 124.794 104.782 124.602 101.953 124.197H101.208L99.0424 124.04H98.3146C88.906 123.605 79.376 122.961 69.6035 122.039H68.9104L64.1454 121.726H63.3657C59.2061 121.675 55.0526 121.391 50.9247 120.874H50.2663L48.4296 120.3H47.8058C44.2534 120.285 40.7055 120.041 37.1842 119.569H36.6471L24.0676 118.699L23.877 121.309L36.4565 122.178H37.4615C46.3503 123.031 54.2169 122.7 62.5859 123.918H63.3137L67.9747 124.231H68.6678C79.2894 125.206 88.8193 125.849 99.0077 126.336H99.7355H100.446C107.897 127.084 116.56 127.693 124.34 128.076H124.981L131.323 128.511H131.877C138.392 126.58 145.15 129.677 151.249 129.851L152.289 129.937L160.242 130.477L160.415 127.867L160.329 128.041Z" fill="#21B0B7"/>
<path d="M130.439 80.5129H129.729L126.263 80.2693H125.535C111.847 79.4343 98.297 78.5297 84.7472 77.6076H83.6382C76.3955 78.8602 69.6378 75.7635 62.8456 76.0767H61.754L43.9243 74.7545C43.7192 74.7396 43.5161 74.7046 43.3178 74.6501L27.1515 73.5367L26.9609 76.1463L42.0876 77.1901H42.6594L62.7416 78.721H63.8159C71.1626 78.4775 78.0415 79.817 85.1803 80.252L86.2546 80.3389C97.3267 81.1044 108.416 81.8177 119.436 82.5135H120.493C134.355 84.5142 147.489 82.8093 160.935 85.2275C161.264 85.2275 161.541 85.2275 161.801 85.3144L163.326 85.4188L163.499 82.8093H163.135H162.252C151.855 82.3048 142.291 81.6437 131.496 80.7391L130.439 80.5999V80.5129Z" fill="#21B0B7"/>
<path d="M89.5128 151.649L87.9014 151.527H87.3642C84.228 153.65 81.8715 149.979 79.2031 150.675C79.2031 151.544 79.0298 153.284 78.9779 154.154V154.711C78.8739 156.45 78.7353 158.312 78.6486 159.617C78.6486 159.982 78.6486 160.347 78.5273 160.608C79.2204 163.705 79.5323 159.356 80.1215 161.374H81.2131L88.8544 161.896L89.5648 151.458L89.5128 151.649Z" fill="#21B0B7"/>
<path d="M103.079 152.588L92.6831 151.875L91.9727 162.313L97.1708 162.678C97.3961 162.678 97.604 162.678 97.8466 162.678C99.3716 162.603 100.9 162.632 102.421 162.765C102.421 162.765 102.421 162.522 102.421 162.052C102.937 159.483 103.1 156.855 102.906 154.241C102.906 153.928 102.906 153.615 102.906 153.389C102.906 152.901 102.906 152.623 102.906 152.623L103.079 152.588Z" fill="#21B0B7"/>
<path d="M87.9533 174.282L86.6191 175.535H87.8667L87.9533 174.195V174.282Z" fill="#21B0B7"/>
<path d="M88.5765 165.271L82.1481 164.836H81.4031C79.9822 164.836 78.3015 163.757 77.3832 164.575C76.3435 167.097 77.799 170.646 77.5911 174.056L78.4575 173.256C78.2245 173.627 77.9317 173.956 77.5911 174.23C77.5911 174.665 77.5911 174.978 77.5911 174.978L84.522 175.465C85.2497 174.752 86.0468 174.021 86.5146 173.534C86.7052 173.534 85.7522 174.526 84.7819 175.483L86.376 175.587L87.9874 174.108L88.5765 165.271Z" fill="#21B0B7"/>
<path d="M95.2133 176.457C94.9361 176.283 96.5128 175.256 97.7951 173.952C96.0623 174.178 95.7331 173.569 96.2009 172.212C99.1119 170.472 97.5525 173.325 99.0426 173.169C97.7431 174.3 96.4089 175.448 95.2133 176.439V176.457ZM95.6638 171.655C95.2479 171.012 96.0103 170.646 96.4435 171.412C94.0177 173.656 95.6985 171.69 95.6638 171.655ZM94.5375 168.298C94.6274 168.382 94.7087 168.475 94.7801 168.576C93.238 170.159 92.8568 169.724 94.5375 168.298ZM101.971 169.481C101.971 169.272 101.971 169.081 101.971 168.889C102.348 167.766 102.558 166.594 102.595 165.41C102.175 165.742 101.683 165.969 101.158 166.072C100.634 166.174 100.093 166.15 99.5798 166.001C99.3548 165.984 99.1289 165.984 98.904 166.001L91.7479 165.479L91.2627 172.56C91.2627 172.769 91.2627 172.96 91.2627 173.169C91.3982 174.096 91.4331 175.035 91.3667 175.97H91.6266C91.875 175.825 92.1124 175.662 92.337 175.483L91.8345 176.039C93.6043 176.494 95.4367 176.653 97.2579 176.509C99.4758 174.195 97.7951 175.048 98.6787 173.865C100.204 173.273 100.775 173.743 101.226 174.508C101.32 174.649 101.424 174.783 101.538 174.908C101.843 174.483 102.021 173.979 102.052 173.455C102.083 172.931 101.964 172.41 101.711 171.951C101.711 171.951 101.711 171.777 101.711 171.69C100.741 172.525 101.191 171.881 101.711 171.238C101.711 170.611 101.798 169.985 101.832 169.498L101.971 169.481Z" fill="#21B0B7"/>
<path d="M97.3447 176.579H97.8299L98.5923 175.935L98.3844 175.726C98.0108 175.982 97.6627 176.273 97.3447 176.596V176.579Z" fill="#21B0B7"/>
<path d="M99.2498 175.587C98.8602 175.881 98.4951 176.207 98.1582 176.561H98.5221C99.0765 176.039 99.4751 175.57 99.2498 175.604V175.587Z" fill="#21B0B7"/>
<path d="M87.3121 32.7584V33.4195C87.1908 34.9157 87.1389 35.7855 87.0176 37.5252C89.686 36.8293 92.2157 37.8731 95.1267 38.482H95.7158L97.3273 38.5864L98.0377 28.2352L87.6414 27.522L87.2948 32.741L87.3121 32.7584Z" fill="#21B0B7"/>
<path d="M100.515 38.882L110.842 39.5953L111.552 29.2267L101.225 28.5134L100.515 38.882Z" fill="#21B0B7"/>
<path d="M86.0119 51.5644L89.2868 51.7905H89.9105C92.0764 51.7905 93.7572 52.7995 95.9577 51.7905L96.1137 51.2164C96.5441 49.4688 96.7651 47.6758 96.7721 45.8756C96.7721 45.632 96.7721 45.4059 96.7721 45.1275C96.8934 43.3008 96.9974 41.8395 96.9974 41.8395L86.601 41.1262L85.8906 51.5644H86.0119Z" fill="#21B0B7"/>
<path d="M100.289 52.5387H101.19L109.854 53.1476C109.854 53.1476 109.975 51.4079 110.114 49.2507C110.114 49.0419 110.114 48.8331 110.114 48.607C110.963 41.7352 108.191 44.1708 101.849 42.2049L100.965 42.1179H100.203C100.203 42.1179 100.047 44.2925 99.8909 46.6585C99.8909 46.8673 99.8909 47.0934 99.8909 47.3022C100.064 48.9027 97.3438 50.4684 100.237 52.5213L100.289 52.5387Z" fill="#21B0B7"/>
</svg>
