<svg width="238" height="189" viewBox="0 0 238 189" fill="none" xmlns="http://www.w3.org/2000/svg">
<path d="M41.026 85.4118C41.6707 85.0988 42.3717 84.9184 43.0876 84.8811C40.3754 86.5875 41.3039 85.5429 41.026 85.4118ZM135.523 36.1759C135.946 37.0382 138.778 35.0323 135.523 36.1759V36.1759ZM179.356 19.335C180.102 20.1462 180.547 20.998 179.372 20.2369C178.198 19.4758 179.525 19.7336 179.356 19.335ZM18.8374 88.4408C18.4868 89.1283 18.0102 89.7435 17.4324 90.2544C31.0519 89.6463 44.4647 86.7245 57.0981 81.6137L58.0874 81.1279C66.0687 76.8344 73.3644 74.1885 81.399 69.949L82.4958 69.4105L83.5712 68.8824C86.3025 67.5413 89.3987 64.4425 91.9092 64.1194L92.4684 63.8449L95.5674 62.0021L96.1481 61.717C98.0685 59.6516 100.523 58.1594 103.24 57.4054L103.82 57.1203L108.224 54.1287L109.299 53.6007C111.841 53.3424 114.014 50.4829 116.444 49.2896L117.563 48.7405C130.147 40.8532 143.359 34.0167 157.066 28.2999L158.142 27.7719L159.088 27.3073C161.15 26.2833 163.334 25.5256 165.588 25.0521L166.233 24.7353C168.835 23.4575 173.141 24.0187 175.619 22.1065L176.199 21.9824C177.718 22.0199 179.238 21.91 180.736 21.6544C180.77 21.236 180.955 20.9047 181.875 21.0947C182.241 20.9152 179.071 18.6992 179.232 18.5932C179.113 18.3935 179.011 18.1844 178.925 17.968C178.432 18.0499 177.928 18.1102 177.445 18.2136L176.317 18.4728L174.137 19.0884L173.074 19.4233C172.309 20.547 171.176 21.368 169.871 21.7452C168.566 22.1225 167.169 22.0325 165.921 21.4906L164.762 21.7388C161.987 22.904 159.128 23.8604 156.21 24.5998L155.608 24.8955C136.801 32.3108 119.311 43.3869 101.653 54.0644L100.857 54.4551L100.599 54.5818C98.1094 54.948 97.0114 57.3868 95.541 57.6539L94.4657 58.1819L90.3337 60.6389L89.2799 61.1564C87.3073 62.5335 85.2153 63.7308 83.029 64.734L81.9751 65.2515L78.8662 66.9653L77.8124 67.4828C76.6307 69.5881 74.4775 69.3343 72.6068 70.1994L71.5314 70.7274L70.4776 71.2448C65.3773 72.5452 60.9206 77.2218 56.3094 77.4525L55.3846 77.9066L54.3523 78.4135C49.8929 80.1115 45.3503 81.5829 40.742 82.8222C40.5424 83.3903 40.1862 83.8898 39.7146 84.2632C40.1447 84.0519 41.2201 83.5239 41.0579 83.7373C41.5826 83.8275 40.8341 85.2385 40.5493 84.4954C38.7895 84.7709 39.0738 83.8822 38.7234 83.3318C31.2566 85.3064 23.604 86.4995 15.8883 86.8922C15.5273 87.1857 15.2109 87.5303 14.9493 87.9152C14.5127 89.1462 18.908 87.4429 18.8374 88.4408Z" fill="#7A4094"/>
<path d="M15.0201 86.9174L14.1516 86.9425C14.0699 87.0136 14.0037 87.1007 13.9571 87.1986C13.9571 87.1986 14.4722 87.1061 15.0201 86.9174Z" fill="#7A4094"/>
<path d="M33.9052 109.885C42.7878 108.895 49.7351 105.376 58.9208 103.916L60.0378 103.582C63.8951 102.196 67.7104 100.67 71.4515 98.994L72.5484 98.4554C84.7901 91.7489 96.2611 86.5712 107.756 79.2681L108.294 79.0041L108.853 78.7295C109.73 75.6233 111.936 75.9849 114.922 75.1074L115.902 74.4391C127.75 67.2033 139.662 60.0968 151.942 54.0669L152.996 53.5495C154.882 50.2153 157.938 50.1329 161.575 49.7117L162.586 49.2153C167.208 47.3325 171.923 45.6869 176.714 44.2848L177.294 43.9997C180.287 42.0487 184.461 43.1564 188.093 41.7474C188.438 41.6172 188.769 41.4546 189.082 41.2617C189.574 41.4223 190.086 41.5132 190.603 41.5317C189.849 40.4305 189.286 39.5027 190.463 39.9954C189.739 39.1735 188.971 38.4802 188.354 37.8203L187.495 37.9743L186.379 38.2014C182.621 39.0296 178.087 40.6673 174.471 41.1317L173.838 41.309C169.413 42.6614 165.058 44.2291 160.773 46.012L160.084 46.3499C157.515 48.4977 154.401 49.8882 151.086 50.3668L150.032 50.8843C137.795 56.893 125.979 64.0325 114.142 71.1825L113.476 71.5099C99.5272 81.284 84.5674 89.5266 68.8539 96.0956L67.7571 96.6342C65.3814 97.6669 62.9634 98.6134 60.5243 99.5168L59.396 99.937C50.7369 102.905 42.9084 106.748 34.635 106.316C34.4211 106.336 34.2056 106.334 33.9919 106.311C27.6263 107.175 21.1953 107.467 14.7756 107.184C15.326 108.306 15.6512 109.457 16.1804 110.535C21.8522 110.793 27.5346 110.606 33.1756 109.976L33.9052 109.885Z" fill="#7A4094"/>
<path d="M189.584 37.9913C190.827 38.8061 191.736 40.0404 192.146 41.4691C193.279 41.2478 194.389 40.9263 195.465 40.5085C195.307 40.0346 195.252 39.5329 195.303 39.0364C194.78 38.5705 194.364 38.2128 194.012 37.9308C192.758 37.985 191.462 37.6846 190.112 37.6521C190.26 37.9539 189.971 37.9623 189.553 37.9266L189.584 37.9913Z" fill="#7A4094"/>
<path d="M88.7639 114.519L89.9253 113.949C92.8154 112.687 95.5995 111.195 98.2507 109.487L98.8314 109.202C100.423 108.42 101.951 107.456 103.479 106.545L104.555 106.017C106.229 105.394 107.773 104.464 109.106 103.273C109.4 103.045 109.705 102.832 110.022 102.637C112.25 99.402 116.241 98.9944 118.802 97.4693L119.856 96.9519C128.164 91.8558 136.45 86.7703 144.863 81.9971C145.217 81.8478 145.561 81.6786 145.896 81.4902C160.931 73.7329 176.938 64.8562 193.336 62.2095C192.39 60.9349 193.13 60.8658 192.877 60.08C194.24 61.6049 193.671 61.6969 193.486 62.1892L194.194 62.0554L195.246 61.86C198.326 61.284 201.46 60.8157 204.613 60.4979C204.745 60.1125 205.771 60.4644 205.988 60.0904C206.294 59.0609 206.32 57.9677 206.062 56.924C201.797 57.2675 197.556 57.8494 193.358 58.6669L193.143 58.7725L192.906 58.8886C193.044 59.1689 192.978 59.3616 192.806 59.4461C192.634 59.5305 192.626 59.0796 192.402 59.0026L192.122 59.1399C187.791 59.0723 183.019 62.8338 178.495 62.8077L177.85 63.1245L177.078 63.1289C175.151 63.5331 173.267 64.1179 171.45 64.8758L170.589 65.2983L169.772 65.6995L169.019 66.0691C166.588 65.738 166.644 68.7874 164.417 68.329C164.063 68.4764 163.718 68.6457 163.385 68.8359L162.331 69.3534L161.793 69.6174C161.486 69.617 161.181 69.6505 160.881 69.7173C160.581 69.7833 160.286 69.8743 160 69.9892C153.997 73.4723 147.984 76.6654 142.165 79.7635L141.627 80.0275C133.505 84.6313 125.508 89.6011 117.523 94.5388L116.501 95.1746C115.797 96.5622 114.722 97.7266 113.396 98.5382C112.07 99.3499 110.544 99.7772 108.989 99.7726L108.451 100.037C104.319 102.494 100.166 104.907 96.1643 107.14L95.0889 107.668C92.1367 108.791 89.328 110.26 86.7211 112.044L86.1404 112.329C66.5683 122.1 45.8997 128.931 22.4076 127.838C22.8078 128.979 23.2296 130.11 23.6086 131.208C47.7545 132.328 68.8655 125.039 88.9439 114.886L88.7639 114.519Z" fill="#7A4094"/>
<path d="M212.999 56.5942C213.291 56.9428 213.495 57.3571 213.592 57.8014C213.569 58.0804 212.342 57.0505 212.052 57.1662C211.762 57.2819 213.166 59.0004 213.037 59.1711C212.907 59.3418 211.775 58.6133 211.325 58.674C210.874 58.7347 210.774 59.2922 210.941 60.0128C213.536 59.8622 216.034 59.8934 218.628 59.9575C218.48 59.87 218.327 59.7934 218.168 59.7283C218.465 58.9484 218.93 58.2445 219.532 57.6674L219.288 57.1716C219.134 56.9939 218.97 56.8241 218.798 56.663C216.869 56.5936 214.929 56.5563 213.021 56.5836L212.999 56.5942Z" fill="#7A4094"/>
<path d="M207.003 77.8664L205.779 78.0926C205.43 78.2021 205.07 78.2712 204.706 78.2986C204.759 78.4064 204.534 78.3831 204.288 78.3166C202.689 78.0781 201.062 78.1083 199.474 78.4062C199.726 79.1698 200.082 79.8952 200.532 80.562L198.699 78.7864C198.345 79.0249 198.013 79.2953 197.708 79.5942L196.548 79.8961C178.748 84.0344 162.37 92.1565 146.414 101.409L145.833 101.694C142.954 102.68 140.878 105.465 137.559 106.587L137.139 106.82L136.064 107.348L122.751 115.57L121.751 116.195C119.537 117.952 117.116 119.429 114.54 120.592L113.508 121.099L112.476 121.605L111.379 122.144L107.807 124.219L107.183 124.525C99.2411 129.388 91.1176 132.414 83.3506 136.709L82.2968 137.227L79.2442 138.511L78.2334 139.008C73.3498 139.934 69.209 145.526 63.5796 144.009C63.2785 144.157 62.764 144.142 62.3991 144.214C51.671 147.085 40.5651 148.298 29.4652 147.81C29.9839 148.867 30.2872 150.082 30.6877 151.17C41.2963 151.628 51.9122 150.543 62.2042 147.949L62.7732 147.803C67.4817 145.965 72.3214 144.483 77.252 143.369L78.3693 142.981C89.4895 139.046 98.5616 131.755 108.523 127.907L109.599 127.379L112.654 125.611L113.73 125.083L114.678 124.35L115.626 123.617C118.06 121.681 120.69 120.004 123.472 118.614L124.139 118.287C132.164 113.811 140.527 110.24 147.615 104.726L148.691 104.198C171.059 91.3149 194.281 80.7686 221.148 80.3652C221.779 79.0391 223.016 78.244 223.667 77.0147C218.098 76.8722 212.527 77.1569 207.003 77.8664Z" fill="#7A4094"/>
<path d="M225.158 80.3227C225.984 80.3187 226.798 80.3468 227.623 80.3965C227.234 79.2768 226.801 78.1246 226.422 77.0264L226.229 77.1215C226.058 78.2489 225.688 79.3365 225.137 80.3333L225.158 80.3227Z" fill="#7A4094"/>
<path d="M211.354 101.843C211.326 101.844 211.297 101.852 211.272 101.864C211.246 101.877 211.223 101.895 211.204 101.917L211.354 101.843Z" fill="#7A4094"/>
<path d="M223.25 97.3662C210.361 98.1935 197.704 101.171 185.802 106.175L185.264 106.439C177.591 112.883 168.207 115.189 159.693 118.995L158.661 119.502L154.133 121.859L153.208 122.314C150.322 122.58 147.344 125.701 144.612 127.096L143.688 127.55L140.362 129.691L139.286 130.219L134.23 133.023L133.218 133.681C131.82 134.367 129.724 137.109 127.193 137.121L126.14 137.638C117.101 142.986 108.093 148.559 98.8977 153.315L96.747 154.371C94.4265 155.789 91.9383 156.912 89.3398 157.714L88.7591 157.999L86.0291 159.126L85.857 159.21L85.0828 159.59C88.2159 160.861 83.9359 161.277 86.5224 162.522C79.2728 161.239 88.2873 161.442 82.8808 160.27C81.6955 160.644 80.5419 161.113 79.4309 161.67L78.3029 162.036L77.1856 162.425L76.0577 162.791C72.4845 163.692 68.9721 164.818 65.5414 166.162C66.4621 166.352 67.8438 166.557 68.9683 166.727C67.7544 167.136 67.9753 167.803 68.2069 168.492C74.2628 167.338 80.1883 165.585 85.896 163.258L85.4252 163.114L86.0896 163.163L86.8208 162.804C86.666 162.77 86.5073 162.758 86.3493 162.768C84.6355 162.539 86.0294 162.497 86.4688 162.522C86.6911 162.539 86.9105 162.584 87.1219 162.656L88.3047 162.075L89.3586 161.558L90.4124 161.04L91.4662 160.523C92.3147 158.554 95.4235 158.58 96.8416 158.097L97.8954 157.58L102.197 155.468C111.023 151.627 119.424 146.874 127.264 141.287L128.211 140.661C132.237 137.988 136.814 136.437 140.575 133.225L141.565 132.74L142.145 132.454L142.683 132.19C143.964 131.374 145.234 130.59 146.536 129.817L147.515 129.149C148.181 128.197 149.042 127.399 150.04 126.808C151.038 126.216 152.151 125.845 153.304 125.718L154.315 125.221L160.211 121.845L160.792 121.559C169.199 116.8 177.934 112.645 186.931 109.126L187.511 108.841C193.723 106.154 200.176 104.061 206.783 102.589C206.505 102.404 206.423 101.856 206.915 100.357C208.329 98.726 207.129 103.837 209.523 99.7986C209.251 100.548 209.422 100.624 209.149 101.374C212.313 97.7601 211.433 102.928 213.87 100.768L213.479 101.441L213.716 101.325C213.756 101.125 213.811 100.928 213.881 100.736C214.857 98.9188 215.212 100.403 214.526 100.419C214.358 100.604 214.248 100.835 214.211 101.082L214.037 101.381L214.692 101.301C215.517 99.6113 215.889 100.205 216.233 100.036C215.984 100.496 215.65 100.905 215.25 101.241C217.459 101.012 219.679 100.858 221.942 100.845L223.1 100.758L224.162 100.691C225.874 99.5026 227.759 97.9613 228.463 98.579L229.136 97.2854C227.506 97.2829 225.919 97.3129 224.322 97.375L223.25 97.3662Z" fill="#7A4094"/>
<path d="M61.4209 166.794C60.9983 166.796 60.576 166.771 60.1564 166.719L59.5126 166.822C52.047 168.069 44.4696 168.525 36.9056 168.183C37.4137 169.218 37.7276 170.455 38.0752 171.435C39.49 171.489 40.2192 171.452 42.3406 171.641C42.5006 170.064 55.5148 170.095 53.0071 168.25L62.8249 168.566C62.2278 168.057 62.6173 167.491 61.4209 166.794Z" fill="#7A4094"/>
</svg>
