<svg width="136" height="8" viewBox="0 0 136 8" fill="none" xmlns="http://www.w3.org/2000/svg">
<path d="M25.0597 3.08268C25.5772 3.08567 26.0889 3.22535 26.5648 3.49347C24.2639 3.81298 25.1981 3.3109 25.0597 3.08268ZM101.977 0.663538C101.977 1.57642 104.451 1.05151 101.977 0.663538V0.663538ZM134.922 4.63727C135.147 5.64144 136.394 5.77837 135.875 4.63727C135.356 3.49617 134.905 5.04807 134.922 4.63727ZM2.50723 2.6947C0.154373 4.7759 3.37026 10.6965 5.36555 6.57445C16.8015 9.50273 26.8707 5.64257 36.6855 6.57445H37.4814C44.0209 6.25494 49.5916 7.05372 56.1485 6.80267H57.0308H57.8958C60.093 6.80267 63.0859 5.45617 64.8159 6.23212H65.2658L67.8608 5.95826H68.3279C70.2299 5.00084 72.2956 4.75598 74.2966 5.25077H74.7637L78.5698 4.54329H79.4348C81.1648 5.38771 83.4831 3.85863 85.438 3.85863H98.748C109.415 2.40162 100.432 3.1081 111.135 3.97274L118.586 3.49347L120.664 3.76734C122.326 3.75766 123.393 3.22728 125.004 3.76734H125.523C127.616 3.76734 130.229 6.04955 132.443 5.45617L132.858 5.5931C133.831 6.26151 134.061 5.04686 135.113 5.45617C135.269 5.11384 134.934 3.91666 135.471 4.46439C135.765 4.46439 135.765 3.99556 135.903 3.97274C135.89 3.75249 135.89 3.53114 135.903 3.3109C135.557 3.17397 135.211 3.01421 134.865 2.9001L134.421 2.2892H134.052L132.858 1.98207C132.858 1.46255 131.576 1.4836 130.61 1.25869C129.644 1.03379 127.751 1.25869 126.342 0.869023L125.004 0.868852C122.834 0.700515 122.79 1.46036 120.664 0.869023L113.041 0.868852C98.4916 -0.683048 89.1749 0.0245211 74.3312 1.73618H73.6911H73.4834C71.7534 1.00587 70.2656 2.62624 69.2276 2.23826H68.3625L64.9025 2.60341H64.0547C62.338 2.95189 60.601 3.097 58.8646 3.03703H58.0169L55.4565 3.19679H54.6087C53.1728 4.49764 51.858 3.37936 50.3701 3.33372H49.5051H48.6574C44.9378 2.30673 40.5608 4.42918 37.4987 2.6947H36.7547H35.9243C32.4936 2.27528 29.9461 2.42661 26.5648 1.5536C26.2546 1.95451 24.9998 1.43266 24.5753 1.5536C24.9213 1.5536 25.7863 1.5536 25.6133 1.66771C25.9247 1.9644 24.9905 2.85446 25.0424 2.10133C23.8141 1.59924 16.8534 2.71753 16.8015 2.10133C11.3335 0.658255 7.63432 2.89663 2.50848 0C-3.27883 5.15252 2.80044 0.125303 2.50832 0.34403C0.39581 1.92577 2.87053 1.87311 2.50723 2.6947Z" fill="#FFCC16"/>
</svg>
